<svg xmlns="http://www.w3.org/2000/svg" width="1093" height="1464" viewBox="0 0 1093 1464" font-family="Inter, Helvetica, Arial, sans-serif"><defs ><pattern id="schraffur" width="7" height="7" patternUnits="userSpaceOnUse" patternTransform="rotate(45)"><rect width="7" height="7" fill="#fbeee2"/><line x1="0" y1="0" x2="0" y2="7" stroke="#e8a871" stroke-width="1.4"/></pattern></defs>
<text x="24.0" y="30.0" font-size="14" fill="#1c2733" text-anchor="start" font-weight="600">Platz für die Elektronik — Vorschlag (Portal.py Rev. 13, ToolheadZ.py Rev. 33)</text>
<text x="24.0" y="48.0" font-size="9" fill="#5b6472" text-anchor="start">Maßstäblich. Rahmen, Portal und Toolhead aus den Skripten; Steuerung und Ketten sind Platzhalter. Das Netzteil (24 V / 3 A) ist ein Steckernetzteil und steht außerhalb.</text>
<clipPath id="drauf"><rect x="262.0" y="92.0" width="581.4" height="599.4"/></clipPath>
<g clip-path="url(#drauf)">
<rect x="294.7" y="588.2" width="516.0" height="17.2" fill="#e4e6ea" stroke="#8c939e" stroke-width="0.8"/>
<rect x="294.7" y="244.2" width="516.0" height="17.2" fill="#e4e6ea" stroke="#8c939e" stroke-width="0.8"/>
<rect x="323.1" y="119.5" width="17.2" height="516.0" fill="#e4e6ea" stroke="#8c939e" stroke-width="0.8"/>
<rect x="326.5" y="162.5" width="10.3" height="430.0" fill="#d7d7dc" stroke="#55555e" stroke-width="0.8"/>
<rect x="765.1" y="119.5" width="17.2" height="516.0" fill="#e4e6ea" stroke="#8c939e" stroke-width="0.8"/>
<rect x="768.5" y="162.5" width="10.3" height="430.0" fill="#d7d7dc" stroke="#55555e" stroke-width="0.8"/>
<rect x="342.8" y="122.1" width="419.7" height="119.5" fill="url(#schraffur)" stroke="#c2621b" stroke-width="1.3"/>
<rect x="377.4" y="294.5" width="336.4" height="276.1" fill="#c9d9ec" stroke="#2f5d92" stroke-width="0.8" fill-opacity="0.18" stroke-dasharray="6 4"/>
<rect x="312.7" y="342.3" width="44.7" height="70.5" fill="#c9d9ec" stroke="#2f5d92" stroke-width="0.8"/>
<rect x="747.9" y="342.3" width="44.7" height="70.5" fill="#c9d9ec" stroke="#2f5d92" stroke-width="0.8"/>
<rect x="337.7" y="398.2" width="430.0" height="17.2" fill="#e4e6ea" stroke="#8c939e" stroke-width="0.8"/>
<rect x="352.1" y="415.4" width="387.0" height="8.6" fill="#d7d7dc" stroke="#55555e" stroke-width="0.8"/>
<rect x="312.7" y="389.6" width="24.9" height="23.2" fill="#c9d9ec" stroke="#2f5d92" stroke-width="0.8"/>
<rect x="767.7" y="389.6" width="24.9" height="23.2" fill="#c9d9ec" stroke="#2f5d92" stroke-width="0.8"/>
<rect x="747.9" y="389.6" width="44.7" height="15.2" fill="#c9d9ec" stroke="#2f5d92" stroke-width="0.8"/>
<rect x="312.7" y="389.6" width="43.1" height="9.6" fill="#c9d9ec" stroke="#2f5d92" stroke-width="0.8"/>
<rect x="319.5" y="396.9" width="36.4" height="36.4" fill="#e8ded0" stroke="#8a6d3b" stroke-width="0.8"/>
<rect x="520.3" y="415.4" width="50.6" height="13.8" fill="#c9d9ec" stroke="#2f5d92" stroke-width="0.8" fill-opacity="0.55"/>
<rect x="526.7" y="429.1" width="37.8" height="6.9" fill="#c9d9ec" stroke="#2f5d92" stroke-width="0.8" fill-opacity="0.55"/>
<rect x="526.7" y="429.1" width="67.1" height="6.9" fill="#c9d9ec" stroke="#2f5d92" stroke-width="0.8" fill-opacity="0.55"/>
<rect x="541.7" y="436.0" width="7.7" height="4.3" fill="#c9d9ec" stroke="#2f5d92" stroke-width="0.8" fill-opacity="0.55"/>
<rect x="526.7" y="436.0" width="3.4" height="5.2" fill="#c9d9ec" stroke="#2f5d92" stroke-width="0.8" fill-opacity="0.55"/>
<rect x="561.1" y="436.0" width="3.4" height="5.2" fill="#c9d9ec" stroke="#2f5d92" stroke-width="0.8" fill-opacity="0.55"/>
<rect x="541.7" y="440.3" width="7.7" height="5.6" fill="#c9d9ec" stroke="#2f5d92" stroke-width="0.8" fill-opacity="0.55"/>
<rect x="549.3" y="429.1" width="44.1" height="48.2" fill="#c9d9ec" stroke="#2f5d92" stroke-width="0.8" fill-opacity="0.55"/>
<rect x="550.4" y="429.1" width="2.6" height="42.7" fill="#c9d9ec" stroke="#2f5d92" stroke-width="0.8" fill-opacity="0.55"/>
<rect x="589.7" y="429.1" width="2.6" height="42.7" fill="#c9d9ec" stroke="#2f5d92" stroke-width="0.8" fill-opacity="0.55"/>
<rect x="553.2" y="435.4" width="36.4" height="36.4" fill="#c9d9ec" stroke="#2f5d92" stroke-width="0.8" fill-opacity="0.55"/>
<rect x="526.7" y="436.0" width="7.7" height="6.9" fill="#c9d9ec" stroke="#2f5d92" stroke-width="0.8" fill-opacity="0.55"/>
<rect x="518.1" y="442.9" width="16.3" height="2.6" fill="#c9d9ec" stroke="#2f5d92" stroke-width="0.8" fill-opacity="0.55"/>
<rect x="518.1" y="442.9" width="3.4" height="23.2" fill="#c9d9ec" stroke="#2f5d92" stroke-width="0.8" fill-opacity="0.55"/>
<rect x="521.5" y="448.0" width="1.5" height="17.2" fill="#c9d9ec" stroke="#2f5d92" stroke-width="0.8" fill-opacity="0.55"/>
<rect x="523.1" y="448.7" width="12.9" height="3.7" fill="#c9d9ec" stroke="#2f5d92" stroke-width="0.8" fill-opacity="0.55"/>
<rect x="523.1" y="460.9" width="12.9" height="3.7" fill="#c9d9ec" stroke="#2f5d92" stroke-width="0.8" fill-opacity="0.55"/>
<rect x="523.1" y="452.3" width="5.2" height="8.6" fill="#c9d9ec" stroke="#2f5d92" stroke-width="0.8" fill-opacity="0.55"/>
<rect x="553.2" y="435.4" width="36.4" height="36.4" fill="#c9d9ec" stroke="#2f5d92" stroke-width="0.8" fill-opacity="0.55"/>
<rect x="563.2" y="445.5" width="16.3" height="16.3" fill="#c9d9ec" stroke="#2f5d92" stroke-width="0.8" fill-opacity="0.55"/>
<rect x="526.7" y="417.1" width="37.8" height="12.0" fill="#c9d9ec" stroke="#2f5d92" stroke-width="0.8" fill-opacity="0.55"/>
<rect x="567.9" y="450.2" width="6.9" height="6.9" fill="#c9d9ec" stroke="#2f5d92" stroke-width="0.8" fill-opacity="0.55"/>
<rect x="537.0" y="440.3" width="17.2" height="8.6" fill="#c9d9ec" stroke="#2f5d92" stroke-width="0.8" fill-opacity="0.55"/>
<rect x="532.7" y="448.9" width="25.8" height="10.3" fill="#c9d9ec" stroke="#2f5d92" stroke-width="0.8" fill-opacity="0.55"/>
<rect x="530.5" y="459.2" width="52.9" height="5.2" fill="#c9d9ec" stroke="#2f5d92" stroke-width="0.8" fill-opacity="0.55"/>
<rect x="521.9" y="459.2" width="8.6" height="5.2" fill="#c9d9ec" stroke="#2f5d92" stroke-width="0.8" fill-opacity="0.55"/>
<rect x="521.9" y="454.5" width="8.2" height="4.7" fill="#c9d9ec" stroke="#2f5d92" stroke-width="0.8" fill-opacity="0.55"/>
<rect x="530.1" y="454.5" width="7.6" height="4.7" fill="#c9d9ec" stroke="#2f5d92" stroke-width="0.8" fill-opacity="0.55"/>
<rect x="529.5" y="454.5" width="8.2" height="2.6" fill="#c9d9ec" stroke="#2f5d92" stroke-width="0.8" fill-opacity="0.55"/>
<rect x="559.3" y="452.3" width="24.1" height="6.9" fill="#c9d9ec" stroke="#2f5d92" stroke-width="0.8" fill-opacity="0.55"/>
<rect x="559.3" y="444.2" width="24.1" height="18.9" fill="#c9d9ec" stroke="#2f5d92" stroke-width="0.8" fill-opacity="0.55"/>
<rect x="561.9" y="444.2" width="18.9" height="18.9" fill="#c9d9ec" stroke="#2f5d92" stroke-width="0.8" fill-opacity="0.55"/>
<rect x="530.5" y="464.4" width="30.1" height="30.1" fill="#c9d9ec" stroke="#2f5d92" stroke-width="0.8" fill-opacity="0.55"/>
<rect x="337.7" y="213.3" width="430.0" height="17.2" fill="none" stroke="#2f5d92" stroke-width="0.8" stroke-dasharray="4 3"/>
<rect x="312.7" y="157.4" width="44.7" height="70.5" fill="none" stroke="#2f5d92" stroke-width="0.8" stroke-dasharray="4 3"/>
<rect x="747.9" y="157.4" width="44.7" height="70.5" fill="none" stroke="#2f5d92" stroke-width="0.8" stroke-dasharray="4 3"/>
<rect x="326.8" y="641.0" width="36.4" height="36.4" fill="#e8ded0" stroke="#8a6d3b" stroke-width="0.8"/>
<rect x="742.1" y="641.0" width="36.4" height="36.4" fill="#e8ded0" stroke="#8a6d3b" stroke-width="0.8"/>
<rect x="293.0" y="194.3" width="18.9" height="160.0" fill="#f6d7b8" stroke="#c2621b" stroke-width="0.8" stroke-dasharray="4 3" fill-opacity="0.6"/>
<rect x="294.7" y="286.8" width="15.5" height="114.4" fill="#a3abb8" stroke="#3d4552" stroke-width="0.8"/>
<rect x="545.6" y="386.1" width="190.1" height="18.9" fill="#f6d7b8" stroke="#c2621b" stroke-width="0.8" stroke-dasharray="4 3" fill-opacity="0.6"/>
<rect x="545.6" y="387.8" width="106.0" height="15.5" fill="#a3abb8" stroke="#3d4552" stroke-width="0.8"/>
<rect x="360.0" y="172.8" width="81.7" height="68.8" fill="#f6d7b8" stroke="#c2621b" stroke-width="1.2" stroke-dasharray="5 3"/>
<rect x="360.0" y="124.7" width="34.4" height="17.2" fill="#e8ded0" stroke="#8a6d3b" stroke-width="1.2" stroke-dasharray="5 3"/>
<rect x="450.3" y="190.0" width="60.2" height="51.6" fill="#e8ded0" stroke="#8a6d3b" stroke-width="1.2" stroke-dasharray="5 3"/>
<polyline points="360.0,207.2 318.8,207.2 318.8,207.2 318.8,641.0 345.0,659.2" fill="none" stroke="#6d3fb5" stroke-width="1.6" stroke-dasharray="5 3" stroke-linejoin="round"/>
<polyline points="400.9,241.6 400.9,243.4 786.6,243.4 786.6,243.4 786.6,641.0 760.3,659.2" fill="none" stroke="#6d3fb5" stroke-width="1.6" stroke-dasharray="5 3" stroke-linejoin="round"/>
<polyline points="400.9,241.6 400.9,243.4 786.6,243.4 786.6,243.4 786.6,157.4" fill="none" stroke="#6d3fb5" stroke-width="1.6" stroke-dasharray="5 3" stroke-linejoin="round"/>
<polyline points="360.0,207.2 318.8,207.2 318.8,207.2 318.8,354.3 302.4,354.3" fill="none" stroke="#6d3fb5" stroke-width="1.6" stroke-dasharray="5 3" stroke-linejoin="round"/>
<circle cx="358.4" cy="438.4" r="4.5" fill="#b4342f" stroke="#ffffff" stroke-width="1.2"/>
<circle cx="789.2" cy="157.4" r="4.5" fill="#b4342f" stroke="#ffffff" stroke-width="1.2"/>
<circle cx="522.4" cy="456.6" r="4.5" fill="#b4342f" stroke="#ffffff" stroke-width="1.2"/>
</g>
<rect x="262.0" y="92.0" width="581.4" height="599.4" fill="none" stroke="#b9c2cf" stroke-width="0.8"/>
<text x="262.0" y="84.0" font-size="10.5" fill="#2f5d92" text-anchor="start" font-weight="600">Draufsicht (vorn unten)</text>
<line x1="331.7" y1="136.7" x2="253.0" y2="136.7" stroke="#5b6472" stroke-width="0.6"/>
<circle cx="331.7" cy="136.7" r="1.5" fill="#5b6472"/>
<text x="250.0" y="139.7" font-size="8.0" fill="#1c2733" text-anchor="end" stroke="#ffffff" stroke-width="3" stroke-linejoin="round" paint-order="stroke">linkes 2040 (600 mm)</text>
<line x1="302.4" y1="199.5" x2="253.0" y2="199.5" stroke="#5b6472" stroke-width="0.6"/>
<circle cx="302.4" cy="199.5" r="1.5" fill="#5b6472"/>
<text x="250.0" y="202.5" font-size="8.0" fill="#1c2733" text-anchor="end" stroke="#ffffff" stroke-width="3" stroke-linejoin="round" paint-order="stroke">Kettenwanne, hängt außen</text>
<text x="250.0" y="212.5" font-size="8.0" fill="#1c2733" text-anchor="end" stroke="#ffffff" stroke-width="3" stroke-linejoin="round" paint-order="stroke">am 2040 (untere Nut)</text>
<line x1="380.7" y1="217.6" x2="253.0" y2="233.5" stroke="#5b6472" stroke-width="0.6"/>
<circle cx="380.7" cy="217.6" r="1.5" fill="#5b6472"/>
<text x="250.0" y="236.5" font-size="8.0" fill="#1c2733" text-anchor="end" stroke="#ffffff" stroke-width="3" stroke-linejoin="round" paint-order="stroke">Portal an der hinteren</text>
<text x="250.0" y="246.5" font-size="8.0" fill="#1c2733" text-anchor="end" stroke="#ffffff" stroke-width="3" stroke-linejoin="round" paint-order="stroke">Grenze (Softlimit Y)</text>
<line x1="423.7" y1="251.1" x2="253.0" y2="267.5" stroke="#5b6472" stroke-width="0.6"/>
<circle cx="423.7" cy="251.1" r="1.5" fill="#5b6472"/>
<text x="250.0" y="270.5" font-size="8.0" fill="#1c2733" text-anchor="end" stroke="#ffffff" stroke-width="3" stroke-linejoin="round" paint-order="stroke">hinteres 2060</text>
<line x1="302.4" y1="328.5" x2="253.0" y2="328.5" stroke="#5b6472" stroke-width="0.6"/>
<circle cx="302.4" cy="328.5" r="1.5" fill="#5b6472"/>
<text x="250.0" y="331.5" font-size="8.0" fill="#1c2733" text-anchor="end" stroke="#ffffff" stroke-width="3" stroke-linejoin="round" paint-order="stroke">Energiekette Y außen</text>
<text x="250.0" y="341.5" font-size="8.0" fill="#1c2733" text-anchor="end" stroke="#ffffff" stroke-width="3" stroke-linejoin="round" paint-order="stroke">am linken 2040</text>
<line x1="358.4" y1="438.4" x2="253.0" y2="438.4" stroke="#5b6472" stroke-width="0.6"/>
<circle cx="358.4" cy="438.4" r="1.5" fill="#5b6472"/>
<text x="250.0" y="441.4" font-size="8.0" fill="#1c2733" text-anchor="end" stroke="#ffffff" stroke-width="3" stroke-linejoin="round" paint-order="stroke">X-Endschalter</text>
<line x1="390.3" y1="560.3" x2="253.0" y2="560.3" stroke="#5b6472" stroke-width="0.6"/>
<circle cx="390.3" cy="560.3" r="1.5" fill="#5b6472"/>
<text x="250.0" y="563.3" font-size="8.0" fill="#1c2733" text-anchor="end" stroke="#ffffff" stroke-width="3" stroke-linejoin="round" paint-order="stroke">Arbeitsfläche: Strahl mit</text>
<text x="250.0" y="573.3" font-size="8.0" fill="#1c2733" text-anchor="end" stroke="#ffffff" stroke-width="3" stroke-linejoin="round" paint-order="stroke">Z unten (391 × 321 mm)</text>
<line x1="423.7" y1="595.1" x2="253.0" y2="595.1" stroke="#5b6472" stroke-width="0.6"/>
<circle cx="423.7" cy="595.1" r="1.5" fill="#5b6472"/>
<text x="250.0" y="598.1" font-size="8.0" fill="#1c2733" text-anchor="end" stroke="#ffffff" stroke-width="3" stroke-linejoin="round" paint-order="stroke">vorderes 2060</text>
<line x1="345.0" y1="659.2" x2="253.0" y2="659.2" stroke="#5b6472" stroke-width="0.6"/>
<circle cx="345.0" cy="659.2" r="1.5" fill="#5b6472"/>
<text x="250.0" y="662.2" font-size="8.0" fill="#1c2733" text-anchor="end" stroke="#ffffff" stroke-width="3" stroke-linejoin="round" paint-order="stroke">Y-Motor links</text>
<line x1="377.2" y1="133.3" x2="852.4" y2="133.3" stroke="#5b6472" stroke-width="0.6"/>
<circle cx="377.2" cy="133.3" r="1.5" fill="#5b6472"/>
<text x="855.4" y="136.3" font-size="8.0" fill="#1c2733" text-anchor="start" stroke="#ffffff" stroke-width="3" stroke-linejoin="round" paint-order="stroke">24 V vom Steckernetzteil:</text>
<text x="855.4" y="146.3" font-size="8.0" fill="#1c2733" text-anchor="start" stroke="#ffffff" stroke-width="3" stroke-linejoin="round" paint-order="stroke">Buchse und Schalter</text>
<line x1="789.2" y1="157.4" x2="852.4" y2="167.3" stroke="#5b6472" stroke-width="0.6"/>
<circle cx="789.2" cy="157.4" r="1.5" fill="#5b6472"/>
<text x="855.4" y="170.3" font-size="8.0" fill="#1c2733" text-anchor="start" stroke="#ffffff" stroke-width="3" stroke-linejoin="round" paint-order="stroke">Y-Endschalter außen am</text>
<text x="855.4" y="180.3" font-size="8.0" fill="#1c2733" text-anchor="start" stroke="#ffffff" stroke-width="3" stroke-linejoin="round" paint-order="stroke">rechten 2040 (links die Kette)</text>
<line x1="400.9" y1="183.2" x2="852.4" y2="201.3" stroke="#5b6472" stroke-width="0.6"/>
<circle cx="400.9" cy="183.2" r="1.5" fill="#5b6472"/>
<text x="855.4" y="204.3" font-size="8.0" fill="#1c2733" text-anchor="start" stroke="#ffffff" stroke-width="3" stroke-linejoin="round" paint-order="stroke">Steuerung: Uno + CNC Shield</text>
<text x="855.4" y="214.3" font-size="8.0" fill="#1c2733" text-anchor="start" stroke="#ffffff" stroke-width="3" stroke-linejoin="round" paint-order="stroke">V3 + 4 × TMC2209, Lüfter</text>
<line x1="480.4" y1="198.6" x2="852.4" y2="235.3" stroke="#5b6472" stroke-width="0.6"/>
<circle cx="480.4" cy="198.6" r="1.5" fill="#5b6472"/>
<text x="855.4" y="238.3" font-size="8.0" fill="#1c2733" text-anchor="start" stroke="#ffffff" stroke-width="3" stroke-linejoin="round" paint-order="stroke">Wago-Klemmen und Wandler</text>
<text x="855.4" y="248.3" font-size="8.0" fill="#1c2733" text-anchor="start" stroke="#ffffff" stroke-width="3" stroke-linejoin="round" paint-order="stroke">24 → 12 V für den Laser</text>
<line x1="753.9" y1="233.0" x2="852.4" y2="269.3" stroke="#5b6472" stroke-width="0.6"/>
<circle cx="753.9" cy="233.0" r="1.5" fill="#5b6472"/>
<text x="855.4" y="272.3" font-size="8.0" fill="#1c2733" text-anchor="start" stroke="#ffffff" stroke-width="3" stroke-linejoin="round" paint-order="stroke">Elektronikfach unter den</text>
<text x="855.4" y="282.3" font-size="8.0" fill="#1c2733" text-anchor="start" stroke="#ffffff" stroke-width="3" stroke-linejoin="round" paint-order="stroke">2040, 488 × 139 × 55 mm</text>
<line x1="718.5" y1="387.8" x2="852.4" y2="387.8" stroke="#5b6472" stroke-width="0.6"/>
<circle cx="718.5" cy="387.8" r="1.5" fill="#5b6472"/>
<text x="855.4" y="390.8" font-size="8.0" fill="#1c2733" text-anchor="start" stroke="#ffffff" stroke-width="3" stroke-linejoin="round" paint-order="stroke">Energiekette X über dem</text>
<text x="855.4" y="400.8" font-size="8.0" fill="#1c2733" text-anchor="start" stroke="#ffffff" stroke-width="3" stroke-linejoin="round" paint-order="stroke">Rohr, hinter dem Riemen</text>
<line x1="522.4" y1="456.6" x2="852.4" y2="456.6" stroke="#5b6472" stroke-width="0.6"/>
<circle cx="522.4" cy="456.6" r="1.5" fill="#5b6472"/>
<text x="855.4" y="459.6" font-size="8.0" fill="#1c2733" text-anchor="start" stroke="#ffffff" stroke-width="3" stroke-linejoin="round" paint-order="stroke">Z-Endschalter (vorhanden)</text>
<line x1="562.8" y1="463.5" x2="852.4" y2="480.6" stroke="#5b6472" stroke-width="0.6"/>
<circle cx="562.8" cy="463.5" r="1.5" fill="#5b6472"/>
<text x="855.4" y="483.6" font-size="8.0" fill="#1c2733" text-anchor="start" stroke="#ffffff" stroke-width="3" stroke-linejoin="round" paint-order="stroke">Toolhead (Mitte)</text>
<line x1="782.3" y1="480.7" x2="852.4" y2="504.6" stroke="#5b6472" stroke-width="0.6"/>
<circle cx="782.3" cy="480.7" r="1.5" fill="#5b6472"/>
<text x="855.4" y="507.6" font-size="8.0" fill="#1c2733" text-anchor="start" stroke="#ffffff" stroke-width="3" stroke-linejoin="round" paint-order="stroke">Kabel Y-Motor rechts</text>
<text x="855.4" y="517.6" font-size="8.0" fill="#1c2733" text-anchor="start" stroke="#ffffff" stroke-width="3" stroke-linejoin="round" paint-order="stroke">in der unteren Nut außen</text>
<line x1="760.3" y1="659.2" x2="852.4" y2="659.2" stroke="#5b6472" stroke-width="0.6"/>
<circle cx="760.3" cy="659.2" r="1.5" fill="#5b6472"/>
<text x="855.4" y="662.2" font-size="8.0" fill="#1c2733" text-anchor="start" stroke="#ffffff" stroke-width="3" stroke-linejoin="round" paint-order="stroke">Y-Motor rechts</text>
<clipPath id="seite"><rect x="262.0" y="761.4" width="597.4" height="316.1"/></clipPath>
<g clip-path="url(#seite)">
<rect x="254.8" y="1052.9" width="611.9" height="17.4" fill="#f1efe9" stroke="none" stroke-width="0.8"/>
<line x1="262.0" y1="1052.9" x2="859.4" y2="1052.9" stroke="#5b6472" stroke-width="1.0"/>
<rect x="308.4" y="907.9" width="870.0" height="58.0" fill="#e4e6ea" stroke="#8c939e" stroke-width="0.8"/>
<rect x="380.9" y="896.3" width="725.0" height="11.6" fill="#d7d7dc" stroke="#55555e" stroke-width="0.8"/>
<rect x="1098.7" y="965.9" width="29.0" height="87.0" fill="#e4e6ea" stroke="#8c939e" stroke-width="0.8"/>
<rect x="518.6" y="965.9" width="29.0" height="87.0" fill="#e4e6ea" stroke="#8c939e" stroke-width="0.8"/>
<rect x="1187.6" y="944.1" width="61.3" height="53.7" fill="#e8ded0" stroke="#8a6d3b" stroke-width="0.8"/>
<rect x="312.8" y="970.2" width="201.5" height="79.8" fill="url(#schraffur)" stroke="#c2621b" stroke-width="1.3"/>
<rect x="312.8" y="893.4" width="183.7" height="76.9" fill="none" stroke="#c2621b" stroke-width="0.8" stroke-dasharray="3 3"/>
<rect x="317.1" y="1013.7" width="29.0" height="36.3" fill="#e8ded0" stroke="#8a6d3b" stroke-width="1.2" stroke-dasharray="5 3"/>
<rect x="427.3" y="1006.5" width="87.0" height="43.5" fill="#e8ded0" stroke="#8a6d3b" stroke-width="1.2" stroke-dasharray="5 3"/>
<rect x="398.3" y="970.2" width="116.0" height="79.8" fill="#f6d7b8" stroke="#c2621b" stroke-width="1.2" stroke-dasharray="5 3"/>
<rect x="372.2" y="880.3" width="118.9" height="8.7" fill="#c9d9ec" stroke="#2f5d92" stroke-width="0.8"/>
<rect x="466.4" y="851.3" width="29.0" height="29.0" fill="#e4e6ea" stroke="#8c939e" stroke-width="0.8"/>
<rect x="398.7" y="889.0" width="65.8" height="14.5" fill="#d7d7dc" stroke="#55555e" stroke-width="0.8"/>
<rect x="372.9" y="889.0" width="26.1" height="47.3" fill="#c9d9ec" stroke="#2f5d92" stroke-width="0.8"/>
<rect x="464.3" y="889.0" width="26.1" height="47.3" fill="#c9d9ec" stroke="#2f5d92" stroke-width="0.8"/>
<rect x="451.9" y="851.3" width="39.2" height="29.0" fill="#c9d9ec" stroke="#2f5d92" stroke-width="0.8"/>
<rect x="495.4" y="842.6" width="23.2" height="46.4" fill="#c9d9ec" stroke="#2f5d92" stroke-width="0.8" fill-opacity="0.55"/>
<rect x="518.6" y="699.1" width="11.6" height="262.5" fill="#c9d9ec" stroke="#2f5d92" stroke-width="0.8" fill-opacity="0.55"/>
<rect x="518.6" y="655.6" width="11.6" height="43.5" fill="#c9d9ec" stroke="#2f5d92" stroke-width="0.8" fill-opacity="0.55"/>
<rect x="530.2" y="662.8" width="7.2" height="290.0" fill="#c9d9ec" stroke="#2f5d92" stroke-width="0.8" fill-opacity="0.55"/>
<rect x="530.2" y="655.6" width="8.7" height="306.0" fill="#c9d9ec" stroke="#2f5d92" stroke-width="0.8" fill-opacity="0.55"/>
<rect x="530.2" y="655.6" width="8.7" height="306.0" fill="#c9d9ec" stroke="#2f5d92" stroke-width="0.8" fill-opacity="0.55"/>
<rect x="537.5" y="662.8" width="9.4" height="290.0" fill="#c9d9ec" stroke="#2f5d92" stroke-width="0.8" fill-opacity="0.55"/>
<rect x="518.6" y="644.0" width="81.2" height="11.6" fill="#c9d9ec" stroke="#2f5d92" stroke-width="0.8" fill-opacity="0.55"/>
<rect x="518.6" y="639.6" width="72.0" height="4.3" fill="#c9d9ec" stroke="#2f5d92" stroke-width="0.8" fill-opacity="0.55"/>
<rect x="518.6" y="639.6" width="72.0" height="4.3" fill="#c9d9ec" stroke="#2f5d92" stroke-width="0.8" fill-opacity="0.55"/>
<rect x="529.3" y="629.5" width="61.3" height="14.5" fill="#c9d9ec" stroke="#2f5d92" stroke-width="0.8" fill-opacity="0.55"/>
<rect x="530.2" y="671.5" width="11.6" height="50.8" fill="#c9d9ec" stroke="#2f5d92" stroke-width="0.8" fill-opacity="0.55"/>
<rect x="541.8" y="677.3" width="4.4" height="50.8" fill="#c9d9ec" stroke="#2f5d92" stroke-width="0.8" fill-opacity="0.55"/>
<rect x="541.8" y="677.3" width="39.2" height="50.8" fill="#c9d9ec" stroke="#2f5d92" stroke-width="0.8" fill-opacity="0.55"/>
<rect x="550.5" y="684.6" width="29.0" height="36.2" fill="#c9d9ec" stroke="#2f5d92" stroke-width="0.8" fill-opacity="0.55"/>
<rect x="551.6" y="710.7" width="6.2" height="8.7" fill="#c9d9ec" stroke="#2f5d92" stroke-width="0.8" fill-opacity="0.55"/>
<rect x="572.3" y="710.7" width="6.2" height="8.7" fill="#c9d9ec" stroke="#2f5d92" stroke-width="0.8" fill-opacity="0.55"/>
<rect x="557.8" y="710.7" width="14.5" height="8.7" fill="#c9d9ec" stroke="#2f5d92" stroke-width="0.8" fill-opacity="0.55"/>
<rect x="529.3" y="571.5" width="61.3" height="58.0" fill="#c9d9ec" stroke="#2f5d92" stroke-width="0.8" fill-opacity="0.55"/>
<rect x="546.2" y="652.7" width="27.5" height="36.2" fill="#c9d9ec" stroke="#2f5d92" stroke-width="0.8" fill-opacity="0.55"/>
<rect x="498.4" y="819.4" width="20.3" height="23.2" fill="#c9d9ec" stroke="#2f5d92" stroke-width="0.8" fill-opacity="0.55"/>
<rect x="554.2" y="677.3" width="11.6" height="232.0" fill="#c9d9ec" stroke="#2f5d92" stroke-width="0.8" fill-opacity="0.55"/>
<rect x="537.5" y="895.0" width="14.5" height="57.9" fill="#c9d9ec" stroke="#2f5d92" stroke-width="0.8" fill-opacity="0.55"/>
<rect x="552.0" y="899.2" width="17.4" height="148.3" fill="#c9d9ec" stroke="#2f5d92" stroke-width="0.8" fill-opacity="0.55"/>
<rect x="569.4" y="899.2" width="8.7" height="148.3" fill="#c9d9ec" stroke="#2f5d92" stroke-width="0.8" fill-opacity="0.55"/>
<rect x="569.4" y="880.4" width="8.7" height="49.3" fill="#c9d9ec" stroke="#2f5d92" stroke-width="0.8" fill-opacity="0.55"/>
<rect x="561.4" y="878.9" width="8.0" height="46.4" fill="#c9d9ec" stroke="#2f5d92" stroke-width="0.8" fill-opacity="0.55"/>
<rect x="561.4" y="878.9" width="8.0" height="11.6" fill="#c9d9ec" stroke="#2f5d92" stroke-width="0.8" fill-opacity="0.55"/>
<rect x="561.4" y="839.1" width="4.4" height="51.5" fill="#c9d9ec" stroke="#2f5d92" stroke-width="0.8" fill-opacity="0.55"/>
<rect x="557.8" y="884.0" width="11.6" height="51.5" fill="#c9d9ec" stroke="#2f5d92" stroke-width="0.8" fill-opacity="0.55"/>
<rect x="544.0" y="884.0" width="31.9" height="14.5" fill="#c9d9ec" stroke="#2f5d92" stroke-width="0.8" fill-opacity="0.55"/>
<rect x="544.0" y="828.9" width="31.9" height="55.1" fill="#c9d9ec" stroke="#2f5d92" stroke-width="0.8" fill-opacity="0.55"/>
<rect x="578.1" y="889.3" width="50.8" height="144.4" fill="#c9d9ec" stroke="#2f5d92" stroke-width="0.8" fill-opacity="0.55"/>
<rect x="477.6" y="842.6" width="23.2" height="46.4" fill="none" stroke="#2f5d92" stroke-width="1.1" stroke-dasharray="4 3"/>
<rect x="500.8" y="699.1" width="11.6" height="262.5" fill="none" stroke="#2f5d92" stroke-width="1.1" stroke-dasharray="4 3"/>
<rect x="448.6" y="851.3" width="29.0" height="29.0" fill="none" stroke="#8c939e" stroke-width="0.8" stroke-dasharray="4 3"/>
<rect x="434.5" y="961.5" width="269.7" height="4.3" fill="#f6d7b8" stroke="#c2621b" stroke-width="0.8" stroke-dasharray="4 3"/>
<path d="M 704.2 950.6 L 471.5 950.6 A 26.1 26.1 0 0 1 471.5 898.4" fill="none" stroke="#a3abb8" stroke-width="21.8" stroke-linecap="butt"/>
<path d="M 704.2 950.6 L 471.5 950.6 A 26.1 26.1 0 0 1 471.5 898.4" fill="none" stroke="#3d4552" stroke-width="0.8" stroke-dasharray="3 2"/>
</g>
<rect x="262.0" y="761.4" width="597.4" height="316.1" fill="none" stroke="#b9c2cf" stroke-width="0.8"/>
<text x="262.0" y="753.4" font-size="10.5" fill="#2f5d92" text-anchor="start" font-weight="600">Seitenansicht von links, hinterer Teil (vorn rechts): Portal an der hinteren Grenze, Z unten</text>
<line x1="395.4" y1="902.1" x2="253.0" y2="902.1" stroke="#5b6472" stroke-width="0.6"/>
<circle cx="395.4" cy="902.1" r="1.5" fill="#5b6472"/>
<text x="250.0" y="905.1" font-size="8.0" fill="#1c2733" text-anchor="end" stroke="#ffffff" stroke-width="3" stroke-linejoin="round" paint-order="stroke">in der Mitte darf es höher</text>
<text x="250.0" y="915.1" font-size="8.0" fill="#1c2733" text-anchor="end" stroke="#ffffff" stroke-width="3" stroke-linejoin="round" paint-order="stroke">werden (gestrichelt)</text>
<line x1="478.0" y1="950.6" x2="253.0" y2="950.6" stroke="#5b6472" stroke-width="0.6"/>
<circle cx="478.0" cy="950.6" r="1.5" fill="#5b6472"/>
<text x="250.0" y="953.6" font-size="8.0" fill="#1c2733" text-anchor="end" stroke="#ffffff" stroke-width="3" stroke-linejoin="round" paint-order="stroke">Energiekette Y (davor),</text>
<text x="250.0" y="963.6" font-size="8.0" fill="#1c2733" text-anchor="end" stroke="#ffffff" stroke-width="3" stroke-linejoin="round" paint-order="stroke">Schleife am Portal</text>
<line x1="334.5" y1="1032.6" x2="253.0" y2="1032.6" stroke="#5b6472" stroke-width="0.6"/>
<circle cx="334.5" cy="1032.6" r="1.5" fill="#5b6472"/>
<text x="250.0" y="1035.6" font-size="8.0" fill="#1c2733" text-anchor="end" stroke="#ffffff" stroke-width="3" stroke-linejoin="round" paint-order="stroke">Elektronikfach</text>
<line x1="525.9" y1="1038.4" x2="253.0" y2="1056.6" stroke="#5b6472" stroke-width="0.6"/>
<circle cx="525.9" cy="1038.4" r="1.5" fill="#5b6472"/>
<text x="250.0" y="1059.6" font-size="8.0" fill="#1c2733" text-anchor="end" stroke="#ffffff" stroke-width="3" stroke-linejoin="round" paint-order="stroke">hinteres 2060</text>
<line x1="612.9" y1="1052.9" x2="253.0" y2="1080.6" stroke="#5b6472" stroke-width="0.6"/>
<circle cx="612.9" cy="1052.9" r="1.5" fill="#5b6472"/>
<text x="250.0" y="1083.6" font-size="8.0" fill="#1c2733" text-anchor="end" stroke="#ffffff" stroke-width="3" stroke-linejoin="round" paint-order="stroke">Tisch</text>
<line x1="524.5" y1="770.1" x2="868.4" y2="770.1" stroke="#5b6472" stroke-width="0.6"/>
<circle cx="524.5" cy="770.1" r="1.5" fill="#5b6472"/>
<text x="871.4" y="773.1" font-size="8.0" fill="#1c2733" text-anchor="start" stroke="#ffffff" stroke-width="3" stroke-linejoin="round" paint-order="stroke">Toolhead oben abgeschnitten</text>
<line x1="512.4" y1="918.0" x2="868.4" y2="918.0" stroke="#5b6472" stroke-width="0.6"/>
<circle cx="512.4" cy="918.0" r="1.5" fill="#5b6472"/>
<text x="871.4" y="921.0" font-size="8.0" fill="#1c2733" text-anchor="start" stroke="#ffffff" stroke-width="3" stroke-linejoin="round" paint-order="stroke">Trägerplatte am Schienenende</text>
<text x="871.4" y="931.0" font-size="8.0" fill="#1c2733" text-anchor="start" stroke="#ffffff" stroke-width="3" stroke-linejoin="round" paint-order="stroke">(nur mit Z oben, gestrichelt)</text>
<line x1="743.4" y1="919.5" x2="868.4" y2="954.0" stroke="#5b6472" stroke-width="0.6"/>
<circle cx="743.4" cy="919.5" r="1.5" fill="#5b6472"/>
<text x="871.4" y="957.0" font-size="8.0" fill="#1c2733" text-anchor="start" stroke="#ffffff" stroke-width="3" stroke-linejoin="round" paint-order="stroke">2040 (davor die Kette)</text>
<line x1="603.5" y1="1025.3" x2="868.4" y2="1025.3" stroke="#5b6472" stroke-width="0.6"/>
<circle cx="603.5" cy="1025.3" r="1.5" fill="#5b6472"/>
<text x="871.4" y="1028.3" font-size="8.0" fill="#1c2733" text-anchor="start" stroke="#ffffff" stroke-width="3" stroke-linejoin="round" paint-order="stroke">Toolhead mit Z unten: 3 mm</text>
<text x="871.4" y="1038.3" font-size="8.0" fill="#1c2733" text-anchor="start" stroke="#ffffff" stroke-width="3" stroke-linejoin="round" paint-order="stroke">vor dem hinteren 2060</text>
<line x1="330.1" y1="1050.0" x2="330.1" y2="970.2" stroke="#2f5d92" stroke-width="0.8"/>
<line x1="327.1" y1="1050.0" x2="333.1" y2="1050.0" stroke="#2f5d92" stroke-width="0.8"/>
<line x1="327.1" y1="970.2" x2="333.1" y2="970.2" stroke="#2f5d92" stroke-width="0.8"/>
<text x="334.1" y="1013.1" font-size="8.0" fill="#2f5d92" text-anchor="start" font-weight="600" stroke="#ffffff" stroke-width="3" stroke-linejoin="round" paint-order="stroke">55 mm</text>
<line x1="312.8" y1="1041.3" x2="514.3" y2="1041.3" stroke="#2f5d92" stroke-width="0.8"/>
<line x1="312.8" y1="1038.3" x2="312.8" y2="1044.3" stroke="#2f5d92" stroke-width="0.8"/>
<line x1="514.3" y1="1038.3" x2="514.3" y2="1044.3" stroke="#2f5d92" stroke-width="0.8"/>
<text x="413.5" y="1037.3" font-size="8.0" fill="#2f5d92" text-anchor="middle" font-weight="600" stroke="#ffffff" stroke-width="3" stroke-linejoin="round" paint-order="stroke">139 mm</text>
<line x1="506.6" y1="970.2" x2="506.6" y2="961.5" stroke="#b4342f" stroke-width="0.9"/>
<polygon points="506.6,970.2 504.6,965.2 508.6,965.2" fill="#b4342f"/>
<polygon points="506.6,961.5 508.6,966.5 504.6,966.5" fill="#b4342f"/>
<text x="511.6" y="959.5" font-size="8.0" fill="#b4342f" text-anchor="start" font-weight="600" stroke="#ffffff" stroke-width="3" stroke-linejoin="round" paint-order="stroke">6 mm</text>
<text x="24.0" y="1119.5" font-size="10.5" fill="#2f5d92" text-anchor="start" font-weight="600">Zahlen</text>
<text x="24.0" y="1137.5" font-size="8.5" fill="#5b6472" text-anchor="start">Fach</text>
<text x="110.0" y="1137.5" font-size="8.5" fill="#1c2733" text-anchor="start">488 × 139 × 55 mm (B × T × H) hinter dem hinteren 2060, unter den 2040 — dort fährt nichts hin, engste Stelle 6 mm (Trägerplatte</text>
<text x="24.0" y="1152.5" font-size="8.5" fill="#5b6472" text-anchor="start"></text>
<text x="110.0" y="1152.5" font-size="8.5" fill="#1c2733" text-anchor="start">am hinteren Schienenende, nur mit Z oben). Die Tiefe hängt an der Lage des hinteren 2060 (400 mm Mitte zu Mitte angenommen).</text>
<text x="24.0" y="1167.5" font-size="8.5" fill="#5b6472" text-anchor="start">höher</text>
<text x="110.0" y="1167.5" font-size="8.5" fill="#1c2733" text-anchor="start">in der Mitte (|X| ≤ 225) ab 15 mm hinter dem 2060 frei bis Z −19 — 10 mm über der Oberkante der 2040</text>
<text x="24.0" y="1182.5" font-size="8.5" fill="#5b6472" text-anchor="start">Netzteil</text>
<text x="110.0" y="1182.5" font-size="8.5" fill="#1c2733" text-anchor="start">Steckernetzteil 24 V / 3 A (72 W), steht außerhalb; Motoren ≈ 18 W, Lüfter ≈ 2 W, Laser über den Wandler ≈ 24 W — zusammen ≈ 44 W, dauernd gehen 61 W</text>
<text x="24.0" y="1197.5" font-size="8.5" fill="#5b6472" text-anchor="start">Endschalter</text>
<text x="110.0" y="1197.5" font-size="8.5" fill="#1c2733" text-anchor="start">LM393-Gabellichtschranken: X links am Portal, Y außen am rechten 2040 — schaltet, wenn der Toolhead mit Z unten 3 mm vor dem hinteren 2060 steht; Z vorhanden</text>
<text x="24.0" y="1212.5" font-size="8.5" fill="#5b6472" text-anchor="start">Kette Y</text>
<text x="110.0" y="1212.5" font-size="8.5" fill="#1c2733" text-anchor="start">321 mm Hub, Festpunkt 273 mm vom hinteren Ende des 2040, Schleife nach hinten, ≈ 257 mm Kette (R18)</text>
<text x="24.0" y="1227.5" font-size="8.5" fill="#5b6472" text-anchor="start">Kette X</text>
<text x="110.0" y="1227.5" font-size="8.5" fill="#1c2733" text-anchor="start">391 mm Hub, Festpunkt in der Mitte, Schleife nach rechts (links steht der X-Motor), ≈ 292 mm Kette (R18)</text>
<text x="24.0" y="1242.5" font-size="8.5" fill="#5b6472" text-anchor="start">Kabel</text>
<text x="110.0" y="1242.5" font-size="8.5" fill="#1c2733" text-anchor="start">Y-Motor links: Weg ≈ 0,63 m → 1 m kaufen</text>
<text x="24.0" y="1257.5" font-size="8.5" fill="#5b6472" text-anchor="start"></text>
<text x="110.0" y="1257.5" font-size="8.5" fill="#1c2733" text-anchor="start">Y-Motor rechts: Weg ≈ 0,99 m → 1,5 m kaufen</text>
<text x="24.0" y="1272.5" font-size="8.5" fill="#5b6472" text-anchor="start"></text>
<text x="110.0" y="1272.5" font-size="8.5" fill="#1c2733" text-anchor="start">X-Motor: Weg ≈ 0,65 m → 1 m kaufen</text>
<text x="24.0" y="1287.5" font-size="8.5" fill="#5b6472" text-anchor="start"></text>
<text x="110.0" y="1287.5" font-size="8.5" fill="#1c2733" text-anchor="start">Z-Motor: Weg ≈ 1,35 m → 2 m kaufen</text>
<text x="24.0" y="1302.5" font-size="8.5" fill="#5b6472" text-anchor="start"></text>
<text x="110.0" y="1302.5" font-size="8.5" fill="#1c2733" text-anchor="start">Laser (24 V + PWM): Weg ≈ 1,36 m → 2 m kaufen</text>
<text x="24.0" y="1317.5" font-size="8.5" fill="#5b6472" text-anchor="start"></text>
<text x="110.0" y="1317.5" font-size="8.5" fill="#1c2733" text-anchor="start">X-Endschalter: Weg ≈ 0,66 m → 1 m kaufen</text>
<text x="24.0" y="1332.5" font-size="8.5" fill="#5b6472" text-anchor="start"></text>
<text x="110.0" y="1332.5" font-size="8.5" fill="#1c2733" text-anchor="start">Y-Endschalter: Weg ≈ 0,59 m → 1 m kaufen</text>
<text x="24.0" y="1347.5" font-size="8.5" fill="#5b6472" text-anchor="start"></text>
<text x="110.0" y="1347.5" font-size="8.5" fill="#1c2733" text-anchor="start">Z-Endschalter: Weg ≈ 1,26 m → 1,5 m kaufen</text>
<rect x="24.0" y="1382.5" width="14.0" height="9.0" fill="#f6d7b8" stroke="#c2621b" stroke-width="0.8"/>
<text x="43.0" y="1390.5" font-size="8.5" fill="#1c2733" text-anchor="start">neu zu drucken (PETG)</text>
<rect x="194.0" y="1382.5" width="14.0" height="9.0" fill="#c9d9ec" stroke="#2f5d92" stroke-width="0.8"/>
<text x="213.0" y="1390.5" font-size="8.5" fill="#1c2733" text-anchor="start">Portal (vorhanden)</text>
<rect x="364.0" y="1382.5" width="14.0" height="9.0" fill="#c9d9ec" stroke="#2f5d92" stroke-width="0.8"/>
<text x="383.0" y="1390.5" font-size="8.5" fill="#1c2733" text-anchor="start">Toolhead</text>
<rect x="534.0" y="1382.5" width="14.0" height="9.0" fill="#e4e6ea" stroke="#8c939e" stroke-width="0.8"/>
<text x="553.0" y="1390.5" font-size="8.5" fill="#1c2733" text-anchor="start">Aluprofil</text>
<rect x="24.0" y="1400.5" width="14.0" height="9.0" fill="#d7d7dc" stroke="#55555e" stroke-width="0.8"/>
<text x="43.0" y="1408.5" font-size="8.5" fill="#1c2733" text-anchor="start">Linearführung</text>
<rect x="194.0" y="1400.5" width="14.0" height="9.0" fill="#e8ded0" stroke="#8a6d3b" stroke-width="0.8"/>
<text x="213.0" y="1408.5" font-size="8.5" fill="#1c2733" text-anchor="start">Kaufteil</text>
<rect x="364.0" y="1400.5" width="14.0" height="9.0" fill="#a3abb8" stroke="#3d4552" stroke-width="0.8"/>
<text x="383.0" y="1408.5" font-size="8.5" fill="#1c2733" text-anchor="start">Energiekette</text>
<line x1="534.0" y1="1405.0" x2="550.0" y2="1405.0" stroke="#6d3fb5" stroke-width="1.6" stroke-dasharray="5 3"/>
<text x="555.0" y="1408.5" font-size="8.5" fill="#1c2733" text-anchor="start">Kabel, fest verlegt</text>
<rect x="24" y="1418.5" width="14" height="9" fill="url(#schraffur)" stroke="#c2621b"/>
<text x="43.0" y="1426.5" font-size="8.5" fill="#1c2733" text-anchor="start">Elektronikfach</text>
<circle cx="201.0" cy="1423.0" r="4.5" fill="#b4342f"/>
<text x="213.0" y="1426.5" font-size="8.5" fill="#1c2733" text-anchor="start">Endschalter</text>
<text x="24.0" y="1448.5" font-size="8.5" fill="#5b6472" text-anchor="start">Gestrichelt: Platzhalter bzw. andere Stellung. Kabelwege mit 15 % Reserve aufgerundet; die Ketten zählen mit ihrer ganzen Länge.</text></svg>