<svg xmlns="http://www.w3.org/2000/svg" width="1008" height="714" viewBox="0 0 1008 714" font-family="Inter, Helvetica, Arial, sans-serif">
<rect width="100%" height="100%" fill="#ffffff"/>
<text x="18.0" y="22.0" font-size="13" fill="#1c2733" text-anchor="start" font-weight="600">Z-Antrieb — Aufbau der Spindel</text>
<text x="18.0" y="37.0" font-size="8.5" fill="#5b6472" text-anchor="start">Seitenansichten geschnitten durch die Spindelachse, Blick von der Seite des Mutternwinkels, vorn (Laser) rechts. Schrauben und Einsätze in die Schnittebene gedreht.</text>
<text x="18.0" y="49.0" font-size="8.5" fill="#5b6472" text-anchor="start">Maßstäblich aus ToolheadZ.py Rev. 31 · hell = liegt hinter der Schnittebene</text>
<line x1="58.0" y1="624.0" x2="64.0" y2="624.0" stroke="#5b6472" stroke-width="0.6"/>
<text x="54.0" y="627.0" font-size="7.5" fill="#5b6472" text-anchor="end">−60</text>
<line x1="58.0" y1="584.0" x2="64.0" y2="584.0" stroke="#5b6472" stroke-width="0.6"/>
<text x="54.0" y="587.0" font-size="7.5" fill="#5b6472" text-anchor="end">−40</text>
<line x1="58.0" y1="544.0" x2="64.0" y2="544.0" stroke="#5b6472" stroke-width="0.6"/>
<text x="54.0" y="547.0" font-size="7.5" fill="#5b6472" text-anchor="end">−20</text>
<line x1="58.0" y1="504.0" x2="64.0" y2="504.0" stroke="#5b6472" stroke-width="0.6"/>
<text x="54.0" y="507.0" font-size="7.5" fill="#5b6472" text-anchor="end">+0</text>
<line x1="58.0" y1="464.0" x2="64.0" y2="464.0" stroke="#5b6472" stroke-width="0.6"/>
<text x="54.0" y="467.0" font-size="7.5" fill="#5b6472" text-anchor="end">+20</text>
<line x1="58.0" y1="424.0" x2="64.0" y2="424.0" stroke="#5b6472" stroke-width="0.6"/>
<text x="54.0" y="427.0" font-size="7.5" fill="#5b6472" text-anchor="end">+40</text>
<line x1="58.0" y1="384.0" x2="64.0" y2="384.0" stroke="#5b6472" stroke-width="0.6"/>
<text x="54.0" y="387.0" font-size="7.5" fill="#5b6472" text-anchor="end">+60</text>
<line x1="58.0" y1="344.0" x2="64.0" y2="344.0" stroke="#5b6472" stroke-width="0.6"/>
<text x="54.0" y="347.0" font-size="7.5" fill="#5b6472" text-anchor="end">+80</text>
<line x1="58.0" y1="304.0" x2="64.0" y2="304.0" stroke="#5b6472" stroke-width="0.6"/>
<text x="54.0" y="307.0" font-size="7.5" fill="#5b6472" text-anchor="end">+100</text>
<line x1="58.0" y1="264.0" x2="64.0" y2="264.0" stroke="#5b6472" stroke-width="0.6"/>
<text x="54.0" y="267.0" font-size="7.5" fill="#5b6472" text-anchor="end">+120</text>
<line x1="58.0" y1="224.0" x2="64.0" y2="224.0" stroke="#5b6472" stroke-width="0.6"/>
<text x="54.0" y="227.0" font-size="7.5" fill="#5b6472" text-anchor="end">+140</text>
<line x1="58.0" y1="184.0" x2="64.0" y2="184.0" stroke="#5b6472" stroke-width="0.6"/>
<text x="54.0" y="187.0" font-size="7.5" fill="#5b6472" text-anchor="end">+160</text>
<line x1="58.0" y1="144.0" x2="64.0" y2="144.0" stroke="#5b6472" stroke-width="0.6"/>
<text x="54.0" y="147.0" font-size="7.5" fill="#5b6472" text-anchor="end">+180</text>
<line x1="58.0" y1="104.0" x2="64.0" y2="104.0" stroke="#5b6472" stroke-width="0.6"/>
<text x="54.0" y="107.0" font-size="7.5" fill="#5b6472" text-anchor="end">+200</text>
<text x="14.0" y="72.0" font-size="8" fill="#5b6472" text-anchor="start">Z [mm]</text>
<clipPath id="ansicht_unten"><rect x="72.0" y="80.0" width="136.0" height="568.0"/></clipPath>
<g clip-path="url(#ansicht_unten)">
<rect x="84.0" y="274.0" width="16.0" height="362.0" fill="#eef2f7" stroke="#a9b6c8" stroke-width="0.8"/>
<rect x="110.0" y="224.0" width="13.0" height="400.0" fill="#eef2f7" stroke="#a9b6c8" stroke-width="0.8"/>
<rect x="100.0" y="214.0" width="12.0" height="422.0" fill="#eef2f7" stroke="#a9b6c8" stroke-width="0.8"/>
<rect x="114.0" y="544.2" width="16.0" height="79.8" fill="#eef2f7" stroke="#a9b6c8" stroke-width="0.8"/>
<rect x="130.0" y="550.1" width="36.0" height="204.5" fill="#eef2f7" stroke="#a9b6c8" stroke-width="0.8"/>
<rect x="166.0" y="536.4" width="70.0" height="199.2" fill="#eef2f7" stroke="#a9b6c8" stroke-width="0.8"/>
<rect x="84.0" y="192.0" width="99.3" height="6.0" fill="#eef2f7" stroke="#a9b6c8" stroke-width="0.8"/>
<rect x="138.0" y="549.1" width="11.6" height="51.0" fill="#eef2f7" stroke="#7f93ad" stroke-width="0.8"/>
<polygon points="84.0,274.0 100.0,274.0 100.0,214.0 118.6,214.0 118.6,198.0 84.0,198.0" fill="#c9d9ec" stroke="#2f5d92" stroke-width="0.8"/>
<rect x="163.4" y="198.0" width="32.6" height="16.0" fill="#c9d9ec" stroke="#2f5d92" stroke-width="0.8"/>
<rect x="98.7" y="178.0" width="19.9" height="20.0" fill="#c9d9ec" stroke="#2f5d92" stroke-width="0.8"/>
<rect x="163.4" y="178.0" width="19.9" height="20.0" fill="#c9d9ec" stroke="#2f5d92" stroke-width="0.8"/>
<rect x="98.7" y="98.0" width="84.6" height="80.0" fill="#e8ded0" stroke="#8a6d3b" stroke-width="0.8"/>
<rect x="119.0" y="178.0" width="44.0" height="4.0" fill="#e8ded0" stroke="#8a6d3b" stroke-width="0.8"/>
<rect x="136.0" y="182.0" width="10.0" height="44.0" fill="#c3c8cf" stroke="#4a4f57" stroke-width="0.8"/>
<rect x="154.0" y="550.1" width="12.0" height="56.0" fill="#c9d9ec" stroke="#2f5d92" stroke-width="0.8"/>
<rect x="149.6" y="549.1" width="4.4" height="51.0" fill="#c9d9ec" stroke="#2f5d92" stroke-width="0.8"/>
<rect x="119.0" y="529.1" width="13.4" height="20.0" fill="#c9d9ec" stroke="#2f5d92" stroke-width="0.8"/>
<rect x="149.6" y="529.1" width="13.4" height="20.0" fill="#c9d9ec" stroke="#2f5d92" stroke-width="0.8"/>
<rect x="120.4" y="529.1" width="9.2" height="14.0" fill="#e3c46b" stroke="#8a6d1b" stroke-width="0.8"/>
<rect x="152.4" y="529.1" width="9.2" height="14.0" fill="#e3c46b" stroke="#8a6d1b" stroke-width="0.8"/>
<rect x="133.0" y="244.0" width="16.0" height="320.0" fill="#c3c8cf" stroke="#4a4f57" stroke-width="0.8"/>
<line x1="133.0" y1="562.0" x2="149.0" y2="559.6" stroke="#7d838c" stroke-width="0.5"/>
<line x1="133.0" y1="558.0" x2="149.0" y2="555.6" stroke="#7d838c" stroke-width="0.5"/>
<line x1="133.0" y1="554.0" x2="149.0" y2="551.6" stroke="#7d838c" stroke-width="0.5"/>
<line x1="133.0" y1="550.0" x2="149.0" y2="547.6" stroke="#7d838c" stroke-width="0.5"/>
<line x1="133.0" y1="546.0" x2="149.0" y2="543.6" stroke="#7d838c" stroke-width="0.5"/>
<line x1="133.0" y1="542.0" x2="149.0" y2="539.6" stroke="#7d838c" stroke-width="0.5"/>
<line x1="133.0" y1="538.0" x2="149.0" y2="535.6" stroke="#7d838c" stroke-width="0.5"/>
<line x1="133.0" y1="534.0" x2="149.0" y2="531.6" stroke="#7d838c" stroke-width="0.5"/>
<line x1="133.0" y1="530.0" x2="149.0" y2="527.6" stroke="#7d838c" stroke-width="0.5"/>
<line x1="133.0" y1="526.0" x2="149.0" y2="523.6" stroke="#7d838c" stroke-width="0.5"/>
<line x1="133.0" y1="522.0" x2="149.0" y2="519.6" stroke="#7d838c" stroke-width="0.5"/>
<line x1="133.0" y1="518.0" x2="149.0" y2="515.6" stroke="#7d838c" stroke-width="0.5"/>
<line x1="133.0" y1="514.0" x2="149.0" y2="511.6" stroke="#7d838c" stroke-width="0.5"/>
<line x1="133.0" y1="510.0" x2="149.0" y2="507.6" stroke="#7d838c" stroke-width="0.5"/>
<line x1="133.0" y1="506.0" x2="149.0" y2="503.6" stroke="#7d838c" stroke-width="0.5"/>
<line x1="133.0" y1="502.0" x2="149.0" y2="499.6" stroke="#7d838c" stroke-width="0.5"/>
<line x1="133.0" y1="498.0" x2="149.0" y2="495.6" stroke="#7d838c" stroke-width="0.5"/>
<line x1="133.0" y1="494.0" x2="149.0" y2="491.6" stroke="#7d838c" stroke-width="0.5"/>
<line x1="133.0" y1="490.0" x2="149.0" y2="487.6" stroke="#7d838c" stroke-width="0.5"/>
<line x1="133.0" y1="486.0" x2="149.0" y2="483.6" stroke="#7d838c" stroke-width="0.5"/>
<line x1="133.0" y1="482.0" x2="149.0" y2="479.6" stroke="#7d838c" stroke-width="0.5"/>
<line x1="133.0" y1="478.0" x2="149.0" y2="475.6" stroke="#7d838c" stroke-width="0.5"/>
<line x1="133.0" y1="474.0" x2="149.0" y2="471.6" stroke="#7d838c" stroke-width="0.5"/>
<line x1="133.0" y1="470.0" x2="149.0" y2="467.6" stroke="#7d838c" stroke-width="0.5"/>
<line x1="133.0" y1="466.0" x2="149.0" y2="463.6" stroke="#7d838c" stroke-width="0.5"/>
<line x1="133.0" y1="462.0" x2="149.0" y2="459.6" stroke="#7d838c" stroke-width="0.5"/>
<line x1="133.0" y1="458.0" x2="149.0" y2="455.6" stroke="#7d838c" stroke-width="0.5"/>
<line x1="133.0" y1="454.0" x2="149.0" y2="451.6" stroke="#7d838c" stroke-width="0.5"/>
<line x1="133.0" y1="450.0" x2="149.0" y2="447.6" stroke="#7d838c" stroke-width="0.5"/>
<line x1="133.0" y1="446.0" x2="149.0" y2="443.6" stroke="#7d838c" stroke-width="0.5"/>
<line x1="133.0" y1="442.0" x2="149.0" y2="439.6" stroke="#7d838c" stroke-width="0.5"/>
<line x1="133.0" y1="438.0" x2="149.0" y2="435.6" stroke="#7d838c" stroke-width="0.5"/>
<line x1="133.0" y1="434.0" x2="149.0" y2="431.6" stroke="#7d838c" stroke-width="0.5"/>
<line x1="133.0" y1="430.0" x2="149.0" y2="427.6" stroke="#7d838c" stroke-width="0.5"/>
<line x1="133.0" y1="426.0" x2="149.0" y2="423.6" stroke="#7d838c" stroke-width="0.5"/>
<line x1="133.0" y1="422.0" x2="149.0" y2="419.6" stroke="#7d838c" stroke-width="0.5"/>
<line x1="133.0" y1="418.0" x2="149.0" y2="415.6" stroke="#7d838c" stroke-width="0.5"/>
<line x1="133.0" y1="414.0" x2="149.0" y2="411.6" stroke="#7d838c" stroke-width="0.5"/>
<line x1="133.0" y1="410.0" x2="149.0" y2="407.6" stroke="#7d838c" stroke-width="0.5"/>
<line x1="133.0" y1="406.0" x2="149.0" y2="403.6" stroke="#7d838c" stroke-width="0.5"/>
<line x1="133.0" y1="402.0" x2="149.0" y2="399.6" stroke="#7d838c" stroke-width="0.5"/>
<line x1="133.0" y1="398.0" x2="149.0" y2="395.6" stroke="#7d838c" stroke-width="0.5"/>
<line x1="133.0" y1="394.0" x2="149.0" y2="391.6" stroke="#7d838c" stroke-width="0.5"/>
<line x1="133.0" y1="390.0" x2="149.0" y2="387.6" stroke="#7d838c" stroke-width="0.5"/>
<line x1="133.0" y1="386.0" x2="149.0" y2="383.6" stroke="#7d838c" stroke-width="0.5"/>
<line x1="133.0" y1="382.0" x2="149.0" y2="379.6" stroke="#7d838c" stroke-width="0.5"/>
<line x1="133.0" y1="378.0" x2="149.0" y2="375.6" stroke="#7d838c" stroke-width="0.5"/>
<line x1="133.0" y1="374.0" x2="149.0" y2="371.6" stroke="#7d838c" stroke-width="0.5"/>
<line x1="133.0" y1="370.0" x2="149.0" y2="367.6" stroke="#7d838c" stroke-width="0.5"/>
<line x1="133.0" y1="366.0" x2="149.0" y2="363.6" stroke="#7d838c" stroke-width="0.5"/>
<line x1="133.0" y1="362.0" x2="149.0" y2="359.6" stroke="#7d838c" stroke-width="0.5"/>
<line x1="133.0" y1="358.0" x2="149.0" y2="355.6" stroke="#7d838c" stroke-width="0.5"/>
<line x1="133.0" y1="354.0" x2="149.0" y2="351.6" stroke="#7d838c" stroke-width="0.5"/>
<line x1="133.0" y1="350.0" x2="149.0" y2="347.6" stroke="#7d838c" stroke-width="0.5"/>
<line x1="133.0" y1="346.0" x2="149.0" y2="343.6" stroke="#7d838c" stroke-width="0.5"/>
<line x1="133.0" y1="342.0" x2="149.0" y2="339.6" stroke="#7d838c" stroke-width="0.5"/>
<line x1="133.0" y1="338.0" x2="149.0" y2="335.6" stroke="#7d838c" stroke-width="0.5"/>
<line x1="133.0" y1="334.0" x2="149.0" y2="331.6" stroke="#7d838c" stroke-width="0.5"/>
<line x1="133.0" y1="330.0" x2="149.0" y2="327.6" stroke="#7d838c" stroke-width="0.5"/>
<line x1="133.0" y1="326.0" x2="149.0" y2="323.6" stroke="#7d838c" stroke-width="0.5"/>
<line x1="133.0" y1="322.0" x2="149.0" y2="319.6" stroke="#7d838c" stroke-width="0.5"/>
<line x1="133.0" y1="318.0" x2="149.0" y2="315.6" stroke="#7d838c" stroke-width="0.5"/>
<line x1="133.0" y1="314.0" x2="149.0" y2="311.6" stroke="#7d838c" stroke-width="0.5"/>
<line x1="133.0" y1="310.0" x2="149.0" y2="307.6" stroke="#7d838c" stroke-width="0.5"/>
<line x1="133.0" y1="306.0" x2="149.0" y2="303.6" stroke="#7d838c" stroke-width="0.5"/>
<line x1="133.0" y1="302.0" x2="149.0" y2="299.6" stroke="#7d838c" stroke-width="0.5"/>
<line x1="133.0" y1="298.0" x2="149.0" y2="295.6" stroke="#7d838c" stroke-width="0.5"/>
<line x1="133.0" y1="294.0" x2="149.0" y2="291.6" stroke="#7d838c" stroke-width="0.5"/>
<line x1="133.0" y1="290.0" x2="149.0" y2="287.6" stroke="#7d838c" stroke-width="0.5"/>
<line x1="133.0" y1="286.0" x2="149.0" y2="283.6" stroke="#7d838c" stroke-width="0.5"/>
<line x1="133.0" y1="282.0" x2="149.0" y2="279.6" stroke="#7d838c" stroke-width="0.5"/>
<line x1="133.0" y1="278.0" x2="149.0" y2="275.6" stroke="#7d838c" stroke-width="0.5"/>
<line x1="133.0" y1="274.0" x2="149.0" y2="271.6" stroke="#7d838c" stroke-width="0.5"/>
<line x1="133.0" y1="270.0" x2="149.0" y2="267.6" stroke="#7d838c" stroke-width="0.5"/>
<line x1="133.0" y1="266.0" x2="149.0" y2="263.6" stroke="#7d838c" stroke-width="0.5"/>
<line x1="133.0" y1="262.0" x2="149.0" y2="259.6" stroke="#7d838c" stroke-width="0.5"/>
<line x1="133.0" y1="258.0" x2="149.0" y2="255.6" stroke="#7d838c" stroke-width="0.5"/>
<line x1="133.0" y1="254.0" x2="149.0" y2="251.6" stroke="#7d838c" stroke-width="0.5"/>
<line x1="133.0" y1="250.0" x2="149.0" y2="247.6" stroke="#7d838c" stroke-width="0.5"/>
<polygon points="122.0,260.0 133.0,260.0 133.0,235.0 136.0,235.0 136.0,210.0 122.0,210.0" fill="#e8ded0" stroke="#8a6d3b" stroke-width="0.8"/>
<polygon points="160.0,260.0 149.0,260.0 149.0,235.0 146.0,235.0 146.0,210.0 160.0,210.0" fill="#e8ded0" stroke="#8a6d3b" stroke-width="0.8"/>
<polygon points="119.0,529.1 133.0,529.1 133.0,518.1 131.0,518.1 131.0,522.1 119.0,522.1" fill="#e8ded0" stroke="#8a6d3b" stroke-width="0.8"/>
<polygon points="163.0,529.1 149.0,529.1 149.0,518.1 151.0,518.1 151.0,522.1 163.0,522.1" fill="#e8ded0" stroke="#8a6d3b" stroke-width="0.8"/>
<rect x="122.0" y="522.1" width="6.0" height="16.0" fill="#c3c8cf" stroke="#4a4f57" stroke-width="0.8"/>
<rect x="119.5" y="516.1" width="11.0" height="6.0" fill="#c3c8cf" stroke="#4a4f57" stroke-width="0.8"/>
<rect x="154.0" y="522.1" width="6.0" height="16.0" fill="#c3c8cf" stroke="#4a4f57" stroke-width="0.8"/>
<rect x="151.5" y="516.1" width="11.0" height="6.0" fill="#c3c8cf" stroke="#4a4f57" stroke-width="0.8"/>
<polyline points="131.0,518.1 151.0,514.2 131.0,510.3 151.0,506.4 131.0,502.5 151.0,498.7 131.0,494.8 151.0,490.9 131.0,487.0 151.0,483.1" fill="none" stroke="#8a6d3b" stroke-width="1.1"/>
<rect x="127.0" y="453.1" width="6.0" height="30.0" fill="#e8ded0" stroke="#8a6d3b" stroke-width="0.8"/>
<rect x="149.0" y="453.1" width="6.0" height="30.0" fill="#e8ded0" stroke="#8a6d3b" stroke-width="0.8"/>
</g>
<text x="72.0" y="72.0" font-size="10" fill="#2f5d92" text-anchor="start" font-weight="600">Schlitten ganz unten  (zc = −40,05)</text>
<line x1="72.0" y1="379.0" x2="208.0" y2="379.0" stroke="#b4342f" stroke-width="0.9" stroke-dasharray="4 3"/>
<clipPath id="ansicht_oben"><rect x="304.0" y="80.0" width="136.0" height="568.0"/></clipPath>
<g clip-path="url(#ansicht_oben)">
<rect x="316.0" y="274.0" width="16.0" height="362.0" fill="#eef2f7" stroke="#a9b6c8" stroke-width="0.8"/>
<rect x="342.0" y="224.0" width="13.0" height="400.0" fill="#eef2f7" stroke="#a9b6c8" stroke-width="0.8"/>
<rect x="332.0" y="214.0" width="12.0" height="422.0" fill="#eef2f7" stroke="#a9b6c8" stroke-width="0.8"/>
<rect x="346.0" y="357.1" width="16.0" height="79.8" fill="#eef2f7" stroke="#a9b6c8" stroke-width="0.8"/>
<rect x="362.0" y="363.0" width="36.0" height="204.5" fill="#eef2f7" stroke="#a9b6c8" stroke-width="0.8"/>
<rect x="398.0" y="349.3" width="70.0" height="199.2" fill="#eef2f7" stroke="#a9b6c8" stroke-width="0.8"/>
<rect x="316.0" y="192.0" width="99.3" height="6.0" fill="#eef2f7" stroke="#a9b6c8" stroke-width="0.8"/>
<rect x="370.0" y="362.0" width="11.6" height="51.0" fill="#eef2f7" stroke="#7f93ad" stroke-width="0.8"/>
<polygon points="316.0,274.0 332.0,274.0 332.0,214.0 350.6,214.0 350.6,198.0 316.0,198.0" fill="#c9d9ec" stroke="#2f5d92" stroke-width="0.8"/>
<rect x="395.4" y="198.0" width="32.6" height="16.0" fill="#c9d9ec" stroke="#2f5d92" stroke-width="0.8"/>
<rect x="330.7" y="178.0" width="19.9" height="20.0" fill="#c9d9ec" stroke="#2f5d92" stroke-width="0.8"/>
<rect x="395.4" y="178.0" width="19.9" height="20.0" fill="#c9d9ec" stroke="#2f5d92" stroke-width="0.8"/>
<rect x="330.7" y="98.0" width="84.6" height="80.0" fill="#e8ded0" stroke="#8a6d3b" stroke-width="0.8"/>
<rect x="351.0" y="178.0" width="44.0" height="4.0" fill="#e8ded0" stroke="#8a6d3b" stroke-width="0.8"/>
<rect x="368.0" y="182.0" width="10.0" height="44.0" fill="#c3c8cf" stroke="#4a4f57" stroke-width="0.8"/>
<rect x="386.0" y="363.0" width="12.0" height="56.0" fill="#c9d9ec" stroke="#2f5d92" stroke-width="0.8"/>
<rect x="381.6" y="362.0" width="4.4" height="51.0" fill="#c9d9ec" stroke="#2f5d92" stroke-width="0.8"/>
<rect x="351.0" y="342.0" width="13.4" height="20.0" fill="#c9d9ec" stroke="#2f5d92" stroke-width="0.8"/>
<rect x="381.6" y="342.0" width="13.4" height="20.0" fill="#c9d9ec" stroke="#2f5d92" stroke-width="0.8"/>
<rect x="352.4" y="342.0" width="9.2" height="14.0" fill="#e3c46b" stroke="#8a6d1b" stroke-width="0.8"/>
<rect x="384.4" y="342.0" width="9.2" height="14.0" fill="#e3c46b" stroke="#8a6d1b" stroke-width="0.8"/>
<rect x="365.0" y="244.0" width="16.0" height="320.0" fill="#c3c8cf" stroke="#4a4f57" stroke-width="0.8"/>
<line x1="365.0" y1="562.0" x2="381.0" y2="559.6" stroke="#7d838c" stroke-width="0.5"/>
<line x1="365.0" y1="558.0" x2="381.0" y2="555.6" stroke="#7d838c" stroke-width="0.5"/>
<line x1="365.0" y1="554.0" x2="381.0" y2="551.6" stroke="#7d838c" stroke-width="0.5"/>
<line x1="365.0" y1="550.0" x2="381.0" y2="547.6" stroke="#7d838c" stroke-width="0.5"/>
<line x1="365.0" y1="546.0" x2="381.0" y2="543.6" stroke="#7d838c" stroke-width="0.5"/>
<line x1="365.0" y1="542.0" x2="381.0" y2="539.6" stroke="#7d838c" stroke-width="0.5"/>
<line x1="365.0" y1="538.0" x2="381.0" y2="535.6" stroke="#7d838c" stroke-width="0.5"/>
<line x1="365.0" y1="534.0" x2="381.0" y2="531.6" stroke="#7d838c" stroke-width="0.5"/>
<line x1="365.0" y1="530.0" x2="381.0" y2="527.6" stroke="#7d838c" stroke-width="0.5"/>
<line x1="365.0" y1="526.0" x2="381.0" y2="523.6" stroke="#7d838c" stroke-width="0.5"/>
<line x1="365.0" y1="522.0" x2="381.0" y2="519.6" stroke="#7d838c" stroke-width="0.5"/>
<line x1="365.0" y1="518.0" x2="381.0" y2="515.6" stroke="#7d838c" stroke-width="0.5"/>
<line x1="365.0" y1="514.0" x2="381.0" y2="511.6" stroke="#7d838c" stroke-width="0.5"/>
<line x1="365.0" y1="510.0" x2="381.0" y2="507.6" stroke="#7d838c" stroke-width="0.5"/>
<line x1="365.0" y1="506.0" x2="381.0" y2="503.6" stroke="#7d838c" stroke-width="0.5"/>
<line x1="365.0" y1="502.0" x2="381.0" y2="499.6" stroke="#7d838c" stroke-width="0.5"/>
<line x1="365.0" y1="498.0" x2="381.0" y2="495.6" stroke="#7d838c" stroke-width="0.5"/>
<line x1="365.0" y1="494.0" x2="381.0" y2="491.6" stroke="#7d838c" stroke-width="0.5"/>
<line x1="365.0" y1="490.0" x2="381.0" y2="487.6" stroke="#7d838c" stroke-width="0.5"/>
<line x1="365.0" y1="486.0" x2="381.0" y2="483.6" stroke="#7d838c" stroke-width="0.5"/>
<line x1="365.0" y1="482.0" x2="381.0" y2="479.6" stroke="#7d838c" stroke-width="0.5"/>
<line x1="365.0" y1="478.0" x2="381.0" y2="475.6" stroke="#7d838c" stroke-width="0.5"/>
<line x1="365.0" y1="474.0" x2="381.0" y2="471.6" stroke="#7d838c" stroke-width="0.5"/>
<line x1="365.0" y1="470.0" x2="381.0" y2="467.6" stroke="#7d838c" stroke-width="0.5"/>
<line x1="365.0" y1="466.0" x2="381.0" y2="463.6" stroke="#7d838c" stroke-width="0.5"/>
<line x1="365.0" y1="462.0" x2="381.0" y2="459.6" stroke="#7d838c" stroke-width="0.5"/>
<line x1="365.0" y1="458.0" x2="381.0" y2="455.6" stroke="#7d838c" stroke-width="0.5"/>
<line x1="365.0" y1="454.0" x2="381.0" y2="451.6" stroke="#7d838c" stroke-width="0.5"/>
<line x1="365.0" y1="450.0" x2="381.0" y2="447.6" stroke="#7d838c" stroke-width="0.5"/>
<line x1="365.0" y1="446.0" x2="381.0" y2="443.6" stroke="#7d838c" stroke-width="0.5"/>
<line x1="365.0" y1="442.0" x2="381.0" y2="439.6" stroke="#7d838c" stroke-width="0.5"/>
<line x1="365.0" y1="438.0" x2="381.0" y2="435.6" stroke="#7d838c" stroke-width="0.5"/>
<line x1="365.0" y1="434.0" x2="381.0" y2="431.6" stroke="#7d838c" stroke-width="0.5"/>
<line x1="365.0" y1="430.0" x2="381.0" y2="427.6" stroke="#7d838c" stroke-width="0.5"/>
<line x1="365.0" y1="426.0" x2="381.0" y2="423.6" stroke="#7d838c" stroke-width="0.5"/>
<line x1="365.0" y1="422.0" x2="381.0" y2="419.6" stroke="#7d838c" stroke-width="0.5"/>
<line x1="365.0" y1="418.0" x2="381.0" y2="415.6" stroke="#7d838c" stroke-width="0.5"/>
<line x1="365.0" y1="414.0" x2="381.0" y2="411.6" stroke="#7d838c" stroke-width="0.5"/>
<line x1="365.0" y1="410.0" x2="381.0" y2="407.6" stroke="#7d838c" stroke-width="0.5"/>
<line x1="365.0" y1="406.0" x2="381.0" y2="403.6" stroke="#7d838c" stroke-width="0.5"/>
<line x1="365.0" y1="402.0" x2="381.0" y2="399.6" stroke="#7d838c" stroke-width="0.5"/>
<line x1="365.0" y1="398.0" x2="381.0" y2="395.6" stroke="#7d838c" stroke-width="0.5"/>
<line x1="365.0" y1="394.0" x2="381.0" y2="391.6" stroke="#7d838c" stroke-width="0.5"/>
<line x1="365.0" y1="390.0" x2="381.0" y2="387.6" stroke="#7d838c" stroke-width="0.5"/>
<line x1="365.0" y1="386.0" x2="381.0" y2="383.6" stroke="#7d838c" stroke-width="0.5"/>
<line x1="365.0" y1="382.0" x2="381.0" y2="379.6" stroke="#7d838c" stroke-width="0.5"/>
<line x1="365.0" y1="378.0" x2="381.0" y2="375.6" stroke="#7d838c" stroke-width="0.5"/>
<line x1="365.0" y1="374.0" x2="381.0" y2="371.6" stroke="#7d838c" stroke-width="0.5"/>
<line x1="365.0" y1="370.0" x2="381.0" y2="367.6" stroke="#7d838c" stroke-width="0.5"/>
<line x1="365.0" y1="366.0" x2="381.0" y2="363.6" stroke="#7d838c" stroke-width="0.5"/>
<line x1="365.0" y1="362.0" x2="381.0" y2="359.6" stroke="#7d838c" stroke-width="0.5"/>
<line x1="365.0" y1="358.0" x2="381.0" y2="355.6" stroke="#7d838c" stroke-width="0.5"/>
<line x1="365.0" y1="354.0" x2="381.0" y2="351.6" stroke="#7d838c" stroke-width="0.5"/>
<line x1="365.0" y1="350.0" x2="381.0" y2="347.6" stroke="#7d838c" stroke-width="0.5"/>
<line x1="365.0" y1="346.0" x2="381.0" y2="343.6" stroke="#7d838c" stroke-width="0.5"/>
<line x1="365.0" y1="342.0" x2="381.0" y2="339.6" stroke="#7d838c" stroke-width="0.5"/>
<line x1="365.0" y1="338.0" x2="381.0" y2="335.6" stroke="#7d838c" stroke-width="0.5"/>
<line x1="365.0" y1="334.0" x2="381.0" y2="331.6" stroke="#7d838c" stroke-width="0.5"/>
<line x1="365.0" y1="330.0" x2="381.0" y2="327.6" stroke="#7d838c" stroke-width="0.5"/>
<line x1="365.0" y1="326.0" x2="381.0" y2="323.6" stroke="#7d838c" stroke-width="0.5"/>
<line x1="365.0" y1="322.0" x2="381.0" y2="319.6" stroke="#7d838c" stroke-width="0.5"/>
<line x1="365.0" y1="318.0" x2="381.0" y2="315.6" stroke="#7d838c" stroke-width="0.5"/>
<line x1="365.0" y1="314.0" x2="381.0" y2="311.6" stroke="#7d838c" stroke-width="0.5"/>
<line x1="365.0" y1="310.0" x2="381.0" y2="307.6" stroke="#7d838c" stroke-width="0.5"/>
<line x1="365.0" y1="306.0" x2="381.0" y2="303.6" stroke="#7d838c" stroke-width="0.5"/>
<line x1="365.0" y1="302.0" x2="381.0" y2="299.6" stroke="#7d838c" stroke-width="0.5"/>
<line x1="365.0" y1="298.0" x2="381.0" y2="295.6" stroke="#7d838c" stroke-width="0.5"/>
<line x1="365.0" y1="294.0" x2="381.0" y2="291.6" stroke="#7d838c" stroke-width="0.5"/>
<line x1="365.0" y1="290.0" x2="381.0" y2="287.6" stroke="#7d838c" stroke-width="0.5"/>
<line x1="365.0" y1="286.0" x2="381.0" y2="283.6" stroke="#7d838c" stroke-width="0.5"/>
<line x1="365.0" y1="282.0" x2="381.0" y2="279.6" stroke="#7d838c" stroke-width="0.5"/>
<line x1="365.0" y1="278.0" x2="381.0" y2="275.6" stroke="#7d838c" stroke-width="0.5"/>
<line x1="365.0" y1="274.0" x2="381.0" y2="271.6" stroke="#7d838c" stroke-width="0.5"/>
<line x1="365.0" y1="270.0" x2="381.0" y2="267.6" stroke="#7d838c" stroke-width="0.5"/>
<line x1="365.0" y1="266.0" x2="381.0" y2="263.6" stroke="#7d838c" stroke-width="0.5"/>
<line x1="365.0" y1="262.0" x2="381.0" y2="259.6" stroke="#7d838c" stroke-width="0.5"/>
<line x1="365.0" y1="258.0" x2="381.0" y2="255.6" stroke="#7d838c" stroke-width="0.5"/>
<line x1="365.0" y1="254.0" x2="381.0" y2="251.6" stroke="#7d838c" stroke-width="0.5"/>
<line x1="365.0" y1="250.0" x2="381.0" y2="247.6" stroke="#7d838c" stroke-width="0.5"/>
<polygon points="354.0,260.0 365.0,260.0 365.0,235.0 368.0,235.0 368.0,210.0 354.0,210.0" fill="#e8ded0" stroke="#8a6d3b" stroke-width="0.8"/>
<polygon points="392.0,260.0 381.0,260.0 381.0,235.0 378.0,235.0 378.0,210.0 392.0,210.0" fill="#e8ded0" stroke="#8a6d3b" stroke-width="0.8"/>
<polygon points="351.0,342.0 365.0,342.0 365.0,331.0 363.0,331.0 363.0,335.0 351.0,335.0" fill="#e8ded0" stroke="#8a6d3b" stroke-width="0.8"/>
<polygon points="395.0,342.0 381.0,342.0 381.0,331.0 383.0,331.0 383.0,335.0 395.0,335.0" fill="#e8ded0" stroke="#8a6d3b" stroke-width="0.8"/>
<rect x="354.0" y="335.0" width="6.0" height="16.0" fill="#c3c8cf" stroke="#4a4f57" stroke-width="0.8"/>
<rect x="351.5" y="329.0" width="11.0" height="6.0" fill="#c3c8cf" stroke="#4a4f57" stroke-width="0.8"/>
<rect x="386.0" y="335.0" width="6.0" height="16.0" fill="#c3c8cf" stroke="#4a4f57" stroke-width="0.8"/>
<rect x="383.5" y="329.0" width="11.0" height="6.0" fill="#c3c8cf" stroke="#4a4f57" stroke-width="0.8"/>
<polyline points="363.0,331.0 383.0,327.1 363.0,323.2 383.0,319.3 363.0,315.4 383.0,311.6 363.0,307.7 383.0,303.8 363.0,299.9 383.0,296.0" fill="none" stroke="#8a6d3b" stroke-width="1.1"/>
<rect x="359.0" y="266.0" width="6.0" height="30.0" fill="#e8ded0" stroke="#8a6d3b" stroke-width="0.8"/>
<rect x="381.0" y="266.0" width="6.0" height="30.0" fill="#e8ded0" stroke="#8a6d3b" stroke-width="0.8"/>
</g>
<text x="304.0" y="72.0" font-size="10" fill="#2f5d92" text-anchor="start" font-weight="600">Schlitten ganz oben  (zc = +53,5)</text>
<line x1="304.0" y1="379.0" x2="440.0" y2="379.0" stroke="#b4342f" stroke-width="0.9" stroke-dasharray="4 3"/>
<line x1="361.0" y1="126.0" x2="455.0" y2="126.0" stroke="#5b6472" stroke-width="0.6"/>
<circle cx="361.0" cy="126.0" r="1.6" fill="#5b6472"/>
<text x="458.0" y="129.0" font-size="8.5" fill="#1c2733" text-anchor="start">NEMA 17, Zentrierbund in der Bohrung des Adapters</text>
<line x1="409.3" y1="188.0" x2="455.0" y2="188.0" stroke="#5b6472" stroke-width="0.6"/>
<circle cx="409.3" cy="188.0" r="1.6" fill="#5b6472"/>
<text x="458.0" y="191.0" font-size="8.5" fill="#1c2733" text-anchor="start">Motoradapter 10 mm (neu) auf der Konsole, die bleibt</text>
<line x1="378.0" y1="204.0" x2="455.0" y2="204.0" stroke="#5b6472" stroke-width="0.6"/>
<circle cx="378.0" cy="204.0" r="1.6" fill="#5b6472"/>
<text x="458.0" y="207.0" font-size="8.5" fill="#1c2733" text-anchor="start">Motorwelle Ø5, zeigt nach unten</text>
<line x1="392.0" y1="224.0" x2="455.0" y2="224.0" stroke="#5b6472" stroke-width="0.6"/>
<circle cx="392.0" cy="224.0" r="1.6" fill="#5b6472"/>
<text x="458.0" y="227.0" font-size="8.5" fill="#1c2733" text-anchor="start">Klemmkupplung 5→8, 25 mm, oben 2 mm in der Konsole</text>
<line x1="373.0" y1="235.0" x2="455.0" y2="236.0" stroke="#5b6472" stroke-width="0.6"/>
<circle cx="373.0" cy="235.0" r="1.6" fill="#5b6472"/>
<text x="458.0" y="239.0" font-size="8.5" fill="#1c2733" text-anchor="start">9 mm Spalt: Welle und Spindel je 8 mm drin</text>
<line x1="387.0" y1="280.0" x2="455.0" y2="280.0" stroke="#5b6472" stroke-width="0.6"/>
<circle cx="387.0" cy="280.0" r="1.6" fill="#5b6472"/>
<text x="458.0" y="283.0" font-size="8.5" fill="#1c2733" text-anchor="start">Gleitmutter Ø14, verdrehgesichert — oberstes bewegtes Teil</text>
<line x1="383.0" y1="311.6" x2="455.0" y2="311.6" stroke="#5b6472" stroke-width="0.6"/>
<circle cx="383.0" cy="311.6" r="1.6" fill="#5b6472"/>
<text x="458.0" y="314.6" font-size="8.5" fill="#1c2733" text-anchor="start">Feder drückt die Gleitmutter nach oben</text>
<line x1="400.0" y1="330.0" x2="455.0" y2="330.0" stroke="#5b6472" stroke-width="0.6"/>
<circle cx="400.0" cy="330.0" r="1.6" fill="#5b6472"/>
<text x="458.0" y="333.0" font-size="8.5" fill="#1c2733" text-anchor="start">Flansch, Schrauben, Regal: siehe Einzelheit A</text>
<line x1="383.4" y1="389.0" x2="455.0" y2="389.0" stroke="#5b6472" stroke-width="0.6"/>
<circle cx="383.4" cy="389.0" r="1.6" fill="#5b6472"/>
<text x="458.0" y="392.0" font-size="8.5" fill="#1c2733" text-anchor="start">Rücken des Mutternwinkels, Spindel läuft im Kanal</text>
<line x1="395.0" y1="407.0" x2="455.0" y2="407.0" stroke="#5b6472" stroke-width="0.6"/>
<circle cx="395.0" cy="407.0" r="1.6" fill="#5b6472"/>
<text x="458.0" y="410.0" font-size="8.5" fill="#1c2733" text-anchor="start">Lasche der Schlittenplatte, trägt den Winkel</text>
<line x1="354.0" y1="425.0" x2="455.0" y2="425.0" stroke="#5b6472" stroke-width="0.6"/>
<circle cx="354.0" cy="425.0" r="1.6" fill="#5b6472"/>
<text x="458.0" y="428.0" font-size="8.5" fill="#1c2733" text-anchor="start">Z-Wagen auf der MGN9-Schiene: führt den Schlitten</text>
<line x1="428.0" y1="461.0" x2="455.0" y2="461.0" stroke="#5b6472" stroke-width="0.6"/>
<circle cx="428.0" cy="461.0" r="1.6" fill="#5b6472"/>
<text x="458.0" y="464.0" font-size="8.5" fill="#1c2733" text-anchor="start">Diodenlaser (dahinter)</text>
<line x1="381.0" y1="540.0" x2="455.0" y2="540.0" stroke="#5b6472" stroke-width="0.6"/>
<circle cx="381.0" cy="540.0" r="1.6" fill="#5b6472"/>
<text x="458.0" y="543.0" font-size="8.5" fill="#1c2733" text-anchor="start">Tr8×2-Spindel, 160 mm: hängt an der Kupplung, unten frei</text>
<line x1="349.4" y1="342.0" x2="340.0" y2="342.0" stroke="#5b6472" stroke-width="0.5"/>
<line x1="357.4" y1="266.0" x2="333.0" y2="266.0" stroke="#5b6472" stroke-width="0.5"/>
<line x1="352.4" y1="260.0" x2="333.0" y2="260.0" stroke="#5b6472" stroke-width="0.5"/>
<line x1="343.0" y1="266.0" x2="343.0" y2="342.0" stroke="#8a6d3b" stroke-width="0.8"/>
<polygon points="343.0,266.0 345.0,271.0 341.0,271.0" fill="#8a6d3b"/>
<polygon points="343.0,342.0 341.0,337.0 345.0,337.0" fill="#8a6d3b"/>
<text x="340.0" y="302.0" font-size="8" fill="#8a6d3b" text-anchor="end" stroke="#ffffff" stroke-width="3" stroke-linejoin="round" paint-order="stroke">Garnitur</text>
<text x="340.0" y="313.0" font-size="8" fill="#8a6d3b" text-anchor="end" font-weight="600" stroke="#ffffff" stroke-width="3" stroke-linejoin="round" paint-order="stroke">38 mm</text>
<line x1="336.0" y1="251.0" x2="336.0" y2="275.0" stroke="#b4342f" stroke-width="0.8"/>
<polygon points="336.0,260.0 334.0,255.0 338.0,255.0" fill="#b4342f"/>
<polygon points="336.0,266.0 338.0,271.0 334.0,271.0" fill="#b4342f"/>
<text x="332.0" y="256.0" font-size="8" fill="#b4342f" text-anchor="end" font-weight="600" stroke="#ffffff" stroke-width="3" stroke-linejoin="round" paint-order="stroke">3 mm Luft</text>
<rect x="348.0" y="322.0" width="52.0" height="48.0" fill="none" stroke="#1c2733" stroke-width="0.9" stroke-dasharray="3 2" rx="3"/>
<text x="350.0" y="319.0" font-size="10" fill="#1c2733" text-anchor="start" font-weight="600" stroke="#ffffff" stroke-width="3" stroke-linejoin="round" paint-order="stroke">A</text>
<text x="708.0" y="92.0" font-size="10" fill="#2f5d92" text-anchor="start" font-weight="600">Draufsicht auf das Regal</text>
<text x="708.0" y="104.0" font-size="8" fill="#5b6472" text-anchor="start">von oben, alles über dem Flansch weggelassen</text>
<polygon points="852.0,202.0 840.0,202.0 840.0,250.0 724.0,250.0 724.0,274.0 852.0,274.0" fill="#eef2f7" stroke="#a9b6c8" stroke-width="0.8" stroke-dasharray="3 2"/>
<rect x="812.0" y="110.0" width="40.0" height="32.0" fill="#c9d9ec" stroke="#2f5d92" stroke-width="0.8"/>
<rect x="812.0" y="142.0" width="16.0" height="24.0" fill="#c9d9ec" stroke="#2f5d92" stroke-width="0.8"/>
<rect x="724.0" y="180.0" width="112.0" height="88.0" fill="#c9d9ec" stroke="#2f5d92" stroke-width="0.8"/>
<circle cx="780.0" cy="224.0" r="44.0" fill="#e8ded0" stroke="#8a6d3b" stroke-width="0.8"/>
<circle cx="780.0" cy="224.0" r="32.0" fill="none" stroke="#8a6d3b" stroke-width="0.8" stroke-dasharray="2 2"/>
<circle cx="802.6" cy="201.4" r="11.0" fill="#c3c8cf" stroke="#4a4f57" stroke-width="0.8"/>
<circle cx="802.6" cy="246.6" r="11.0" fill="#c3c8cf" stroke="#4a4f57" stroke-width="0.8"/>
<circle cx="757.4" cy="201.4" r="11.0" fill="#c3c8cf" stroke="#4a4f57" stroke-width="0.8"/>
<circle cx="757.4" cy="246.6" r="11.0" fill="#c3c8cf" stroke="#4a4f57" stroke-width="0.8"/>
<circle cx="780.0" cy="224.0" r="20.0" fill="#e8ded0" stroke="#8a6d3b" stroke-width="0.8"/>
<circle cx="780.0" cy="224.0" r="16.0" fill="#c3c8cf" stroke="#4a4f57" stroke-width="0.8"/>
<text x="780.0" y="227.0" font-size="7" fill="#1c2733" text-anchor="middle">Tr8</text>
<line x1="832.0" y1="126.0" x2="861.0" y2="126.0" stroke="#5b6472" stroke-width="0.6"/>
<circle cx="832.0" cy="126.0" r="1.6" fill="#5b6472"/>
<text x="864.0" y="129.0" font-size="7.5" fill="#1c2733" text-anchor="start">Trägerplatte (Säule)</text>
<line x1="820.0" y1="154.0" x2="861.0" y2="154.0" stroke="#5b6472" stroke-width="0.6"/>
<circle cx="820.0" cy="154.0" r="1.6" fill="#5b6472"/>
<text x="864.0" y="157.0" font-size="7.5" fill="#1c2733" text-anchor="start">Säulenrippe, 3,5 mm Luft zum Regal</text>
<line x1="848.0" y1="262.0" x2="861.0" y2="262.0" stroke="#5b6472" stroke-width="0.6"/>
<circle cx="848.0" cy="262.0" r="1.6" fill="#5b6472"/>
<text x="864.0" y="265.0" font-size="7.5" fill="#1c2733" text-anchor="start">Schlittenplatte, tiefer</text>
<text x="708.0" y="296.0" font-size="8" fill="#1c2733" text-anchor="start">unten = vorn (Laser) · Lochkreis Ø16, um 45° gedreht</text>
<text x="708.0" y="326.0" font-size="10" fill="#2f5d92" text-anchor="start" font-weight="600">Einzelheit A: Flansch auf dem Regal</text>
<text x="708.0" y="338.0" font-size="8" fill="#5b6472" text-anchor="start">2,5-fach gegenüber den Seitenansichten</text>
<clipPath id="einzelheit_a"><rect x="708.0" y="344.0" width="130.0" height="120.0"/></clipPath>
<g clip-path="url(#einzelheit_a)">
<rect x="628.0" y="224.0" width="40.0" height="905.0" fill="#eef2f7" stroke="#a9b6c8" stroke-width="0.8"/>
<rect x="693.0" y="99.0" width="32.5" height="1000.0" fill="#eef2f7" stroke="#a9b6c8" stroke-width="0.8"/>
<rect x="668.0" y="74.0" width="30.0" height="1055.0" fill="#eef2f7" stroke="#a9b6c8" stroke-width="0.8"/>
<rect x="703.0" y="431.8" width="40.0" height="199.5" fill="#eef2f7" stroke="#a9b6c8" stroke-width="0.8"/>
<rect x="743.0" y="446.5" width="90.0" height="511.2" fill="#eef2f7" stroke="#a9b6c8" stroke-width="0.8"/>
<rect x="833.0" y="412.2" width="175.0" height="498.0" fill="#eef2f7" stroke="#a9b6c8" stroke-width="0.8"/>
<rect x="628.0" y="19.0" width="248.2" height="15.0" fill="#eef2f7" stroke="#a9b6c8" stroke-width="0.8"/>
<rect x="763.0" y="444.0" width="29.0" height="127.5" fill="#eef2f7" stroke="#7f93ad" stroke-width="0.8"/>
<polygon points="628.0,224.0 668.0,224.0 668.0,74.0 714.5,74.0 714.5,34.0 628.0,34.0" fill="#c9d9ec" stroke="#2f5d92" stroke-width="0.8"/>
<rect x="826.5" y="34.0" width="81.5" height="40.0" fill="#c9d9ec" stroke="#2f5d92" stroke-width="0.8"/>
<rect x="664.8" y="-16.0" width="49.8" height="50.0" fill="#c9d9ec" stroke="#2f5d92" stroke-width="0.8"/>
<rect x="826.5" y="-16.0" width="49.8" height="50.0" fill="#c9d9ec" stroke="#2f5d92" stroke-width="0.8"/>
<rect x="664.8" y="-216.0" width="211.5" height="200.0" fill="#e8ded0" stroke="#8a6d3b" stroke-width="0.8"/>
<rect x="715.5" y="-16.0" width="110.0" height="10.0" fill="#e8ded0" stroke="#8a6d3b" stroke-width="0.8"/>
<rect x="758.0" y="-6.0" width="25.0" height="110.0" fill="#c3c8cf" stroke="#4a4f57" stroke-width="0.8"/>
<rect x="803.0" y="446.5" width="30.0" height="140.0" fill="#c9d9ec" stroke="#2f5d92" stroke-width="0.8"/>
<rect x="792.0" y="444.0" width="11.0" height="127.5" fill="#c9d9ec" stroke="#2f5d92" stroke-width="0.8"/>
<rect x="715.5" y="394.0" width="33.5" height="50.0" fill="#c9d9ec" stroke="#2f5d92" stroke-width="0.8"/>
<rect x="792.0" y="394.0" width="33.5" height="50.0" fill="#c9d9ec" stroke="#2f5d92" stroke-width="0.8"/>
<rect x="719.0" y="394.0" width="23.0" height="35.0" fill="#e3c46b" stroke="#8a6d1b" stroke-width="0.8"/>
<rect x="799.0" y="394.0" width="23.0" height="35.0" fill="#e3c46b" stroke="#8a6d1b" stroke-width="0.8"/>
<rect x="750.5" y="149.0" width="40.0" height="800.0" fill="#c3c8cf" stroke="#4a4f57" stroke-width="0.8"/>
<line x1="750.5" y1="944.0" x2="790.5" y2="938.0" stroke="#7d838c" stroke-width="0.5"/>
<line x1="750.5" y1="934.0" x2="790.5" y2="928.0" stroke="#7d838c" stroke-width="0.5"/>
<line x1="750.5" y1="924.0" x2="790.5" y2="918.0" stroke="#7d838c" stroke-width="0.5"/>
<line x1="750.5" y1="914.0" x2="790.5" y2="908.0" stroke="#7d838c" stroke-width="0.5"/>
<line x1="750.5" y1="904.0" x2="790.5" y2="898.0" stroke="#7d838c" stroke-width="0.5"/>
<line x1="750.5" y1="894.0" x2="790.5" y2="888.0" stroke="#7d838c" stroke-width="0.5"/>
<line x1="750.5" y1="884.0" x2="790.5" y2="878.0" stroke="#7d838c" stroke-width="0.5"/>
<line x1="750.5" y1="874.0" x2="790.5" y2="868.0" stroke="#7d838c" stroke-width="0.5"/>
<line x1="750.5" y1="864.0" x2="790.5" y2="858.0" stroke="#7d838c" stroke-width="0.5"/>
<line x1="750.5" y1="854.0" x2="790.5" y2="848.0" stroke="#7d838c" stroke-width="0.5"/>
<line x1="750.5" y1="844.0" x2="790.5" y2="838.0" stroke="#7d838c" stroke-width="0.5"/>
<line x1="750.5" y1="834.0" x2="790.5" y2="828.0" stroke="#7d838c" stroke-width="0.5"/>
<line x1="750.5" y1="824.0" x2="790.5" y2="818.0" stroke="#7d838c" stroke-width="0.5"/>
<line x1="750.5" y1="814.0" x2="790.5" y2="808.0" stroke="#7d838c" stroke-width="0.5"/>
<line x1="750.5" y1="804.0" x2="790.5" y2="798.0" stroke="#7d838c" stroke-width="0.5"/>
<line x1="750.5" y1="794.0" x2="790.5" y2="788.0" stroke="#7d838c" stroke-width="0.5"/>
<line x1="750.5" y1="784.0" x2="790.5" y2="778.0" stroke="#7d838c" stroke-width="0.5"/>
<line x1="750.5" y1="774.0" x2="790.5" y2="768.0" stroke="#7d838c" stroke-width="0.5"/>
<line x1="750.5" y1="764.0" x2="790.5" y2="758.0" stroke="#7d838c" stroke-width="0.5"/>
<line x1="750.5" y1="754.0" x2="790.5" y2="748.0" stroke="#7d838c" stroke-width="0.5"/>
<line x1="750.5" y1="744.0" x2="790.5" y2="738.0" stroke="#7d838c" stroke-width="0.5"/>
<line x1="750.5" y1="734.0" x2="790.5" y2="728.0" stroke="#7d838c" stroke-width="0.5"/>
<line x1="750.5" y1="724.0" x2="790.5" y2="718.0" stroke="#7d838c" stroke-width="0.5"/>
<line x1="750.5" y1="714.0" x2="790.5" y2="708.0" stroke="#7d838c" stroke-width="0.5"/>
<line x1="750.5" y1="704.0" x2="790.5" y2="698.0" stroke="#7d838c" stroke-width="0.5"/>
<line x1="750.5" y1="694.0" x2="790.5" y2="688.0" stroke="#7d838c" stroke-width="0.5"/>
<line x1="750.5" y1="684.0" x2="790.5" y2="678.0" stroke="#7d838c" stroke-width="0.5"/>
<line x1="750.5" y1="674.0" x2="790.5" y2="668.0" stroke="#7d838c" stroke-width="0.5"/>
<line x1="750.5" y1="664.0" x2="790.5" y2="658.0" stroke="#7d838c" stroke-width="0.5"/>
<line x1="750.5" y1="654.0" x2="790.5" y2="648.0" stroke="#7d838c" stroke-width="0.5"/>
<line x1="750.5" y1="644.0" x2="790.5" y2="638.0" stroke="#7d838c" stroke-width="0.5"/>
<line x1="750.5" y1="634.0" x2="790.5" y2="628.0" stroke="#7d838c" stroke-width="0.5"/>
<line x1="750.5" y1="624.0" x2="790.5" y2="618.0" stroke="#7d838c" stroke-width="0.5"/>
<line x1="750.5" y1="614.0" x2="790.5" y2="608.0" stroke="#7d838c" stroke-width="0.5"/>
<line x1="750.5" y1="604.0" x2="790.5" y2="598.0" stroke="#7d838c" stroke-width="0.5"/>
<line x1="750.5" y1="594.0" x2="790.5" y2="588.0" stroke="#7d838c" stroke-width="0.5"/>
<line x1="750.5" y1="584.0" x2="790.5" y2="578.0" stroke="#7d838c" stroke-width="0.5"/>
<line x1="750.5" y1="574.0" x2="790.5" y2="568.0" stroke="#7d838c" stroke-width="0.5"/>
<line x1="750.5" y1="564.0" x2="790.5" y2="558.0" stroke="#7d838c" stroke-width="0.5"/>
<line x1="750.5" y1="554.0" x2="790.5" y2="548.0" stroke="#7d838c" stroke-width="0.5"/>
<line x1="750.5" y1="544.0" x2="790.5" y2="538.0" stroke="#7d838c" stroke-width="0.5"/>
<line x1="750.5" y1="534.0" x2="790.5" y2="528.0" stroke="#7d838c" stroke-width="0.5"/>
<line x1="750.5" y1="524.0" x2="790.5" y2="518.0" stroke="#7d838c" stroke-width="0.5"/>
<line x1="750.5" y1="514.0" x2="790.5" y2="508.0" stroke="#7d838c" stroke-width="0.5"/>
<line x1="750.5" y1="504.0" x2="790.5" y2="498.0" stroke="#7d838c" stroke-width="0.5"/>
<line x1="750.5" y1="494.0" x2="790.5" y2="488.0" stroke="#7d838c" stroke-width="0.5"/>
<line x1="750.5" y1="484.0" x2="790.5" y2="478.0" stroke="#7d838c" stroke-width="0.5"/>
<line x1="750.5" y1="474.0" x2="790.5" y2="468.0" stroke="#7d838c" stroke-width="0.5"/>
<line x1="750.5" y1="464.0" x2="790.5" y2="458.0" stroke="#7d838c" stroke-width="0.5"/>
<line x1="750.5" y1="454.0" x2="790.5" y2="448.0" stroke="#7d838c" stroke-width="0.5"/>
<line x1="750.5" y1="444.0" x2="790.5" y2="438.0" stroke="#7d838c" stroke-width="0.5"/>
<line x1="750.5" y1="434.0" x2="790.5" y2="428.0" stroke="#7d838c" stroke-width="0.5"/>
<line x1="750.5" y1="424.0" x2="790.5" y2="418.0" stroke="#7d838c" stroke-width="0.5"/>
<line x1="750.5" y1="414.0" x2="790.5" y2="408.0" stroke="#7d838c" stroke-width="0.5"/>
<line x1="750.5" y1="404.0" x2="790.5" y2="398.0" stroke="#7d838c" stroke-width="0.5"/>
<line x1="750.5" y1="394.0" x2="790.5" y2="388.0" stroke="#7d838c" stroke-width="0.5"/>
<line x1="750.5" y1="384.0" x2="790.5" y2="378.0" stroke="#7d838c" stroke-width="0.5"/>
<line x1="750.5" y1="374.0" x2="790.5" y2="368.0" stroke="#7d838c" stroke-width="0.5"/>
<line x1="750.5" y1="364.0" x2="790.5" y2="358.0" stroke="#7d838c" stroke-width="0.5"/>
<line x1="750.5" y1="354.0" x2="790.5" y2="348.0" stroke="#7d838c" stroke-width="0.5"/>
<line x1="750.5" y1="344.0" x2="790.5" y2="338.0" stroke="#7d838c" stroke-width="0.5"/>
<line x1="750.5" y1="334.0" x2="790.5" y2="328.0" stroke="#7d838c" stroke-width="0.5"/>
<line x1="750.5" y1="324.0" x2="790.5" y2="318.0" stroke="#7d838c" stroke-width="0.5"/>
<line x1="750.5" y1="314.0" x2="790.5" y2="308.0" stroke="#7d838c" stroke-width="0.5"/>
<line x1="750.5" y1="304.0" x2="790.5" y2="298.0" stroke="#7d838c" stroke-width="0.5"/>
<line x1="750.5" y1="294.0" x2="790.5" y2="288.0" stroke="#7d838c" stroke-width="0.5"/>
<line x1="750.5" y1="284.0" x2="790.5" y2="278.0" stroke="#7d838c" stroke-width="0.5"/>
<line x1="750.5" y1="274.0" x2="790.5" y2="268.0" stroke="#7d838c" stroke-width="0.5"/>
<line x1="750.5" y1="264.0" x2="790.5" y2="258.0" stroke="#7d838c" stroke-width="0.5"/>
<line x1="750.5" y1="254.0" x2="790.5" y2="248.0" stroke="#7d838c" stroke-width="0.5"/>
<line x1="750.5" y1="244.0" x2="790.5" y2="238.0" stroke="#7d838c" stroke-width="0.5"/>
<line x1="750.5" y1="234.0" x2="790.5" y2="228.0" stroke="#7d838c" stroke-width="0.5"/>
<line x1="750.5" y1="224.0" x2="790.5" y2="218.0" stroke="#7d838c" stroke-width="0.5"/>
<line x1="750.5" y1="214.0" x2="790.5" y2="208.0" stroke="#7d838c" stroke-width="0.5"/>
<line x1="750.5" y1="204.0" x2="790.5" y2="198.0" stroke="#7d838c" stroke-width="0.5"/>
<line x1="750.5" y1="194.0" x2="790.5" y2="188.0" stroke="#7d838c" stroke-width="0.5"/>
<line x1="750.5" y1="184.0" x2="790.5" y2="178.0" stroke="#7d838c" stroke-width="0.5"/>
<line x1="750.5" y1="174.0" x2="790.5" y2="168.0" stroke="#7d838c" stroke-width="0.5"/>
<line x1="750.5" y1="164.0" x2="790.5" y2="158.0" stroke="#7d838c" stroke-width="0.5"/>
<polygon points="723.0,189.0 750.5,189.0 750.5,126.5 758.0,126.5 758.0,64.0 723.0,64.0" fill="#e8ded0" stroke="#8a6d3b" stroke-width="0.8"/>
<polygon points="818.0,189.0 790.5,189.0 790.5,126.5 783.0,126.5 783.0,64.0 818.0,64.0" fill="#e8ded0" stroke="#8a6d3b" stroke-width="0.8"/>
<polygon points="715.5,394.0 750.5,394.0 750.5,366.5 745.5,366.5 745.5,376.5 715.5,376.5" fill="#e8ded0" stroke="#8a6d3b" stroke-width="0.8"/>
<polygon points="825.5,394.0 790.5,394.0 790.5,366.5 795.5,366.5 795.5,376.5 825.5,376.5" fill="#e8ded0" stroke="#8a6d3b" stroke-width="0.8"/>
<rect x="723.0" y="376.5" width="15.0" height="40.0" fill="#c3c8cf" stroke="#4a4f57" stroke-width="0.8"/>
<rect x="716.8" y="361.5" width="27.5" height="15.0" fill="#c3c8cf" stroke="#4a4f57" stroke-width="0.8"/>
<rect x="803.0" y="376.5" width="15.0" height="40.0" fill="#c3c8cf" stroke="#4a4f57" stroke-width="0.8"/>
<rect x="796.8" y="361.5" width="27.5" height="15.0" fill="#c3c8cf" stroke="#4a4f57" stroke-width="0.8"/>
<polyline points="745.5,366.5 795.5,356.8 745.5,347.1 795.5,337.3 745.5,327.6 795.5,317.9 745.5,308.2 795.5,298.4 745.5,288.7 795.5,279.0" fill="none" stroke="#8a6d3b" stroke-width="1.1"/>
<rect x="735.5" y="204.0" width="15.0" height="75.0" fill="#e8ded0" stroke="#8a6d3b" stroke-width="0.8"/>
<rect x="790.5" y="204.0" width="15.0" height="75.0" fill="#e8ded0" stroke="#8a6d3b" stroke-width="0.8"/>
</g>
<rect x="708.0" y="344.0" width="130.0" height="120.0" fill="none" stroke="#1c2733" stroke-width="0.9"/>
<line x1="821.2" y1="368.5" x2="849.0" y2="368.5" stroke="#5b6472" stroke-width="0.6"/>
<circle cx="821.2" cy="368.5" r="1.6" fill="#5b6472"/>
<text x="852.0" y="371.5" font-size="8.5" fill="#1c2733" text-anchor="start">M3×8 Zylinderkopf, ohne Scheibe</text>
<line x1="793.5" y1="369.5" x2="849.0" y2="381.5" stroke="#5b6472" stroke-width="0.6"/>
<circle cx="793.5" cy="369.5" r="1.6" fill="#5b6472"/>
<text x="852.0" y="384.5" font-size="8.5" fill="#1c2733" text-anchor="start">Bund Ø10 × 2 zeigt nach oben</text>
<line x1="822.5" y1="385.2" x2="849.0" y2="394.5" stroke="#5b6472" stroke-width="0.6"/>
<circle cx="822.5" cy="385.2" r="1.6" fill="#5b6472"/>
<text x="852.0" y="397.5" font-size="8.5" fill="#1c2733" text-anchor="start">Flansch Ø22 × 3,5, glatte Seite unten</text>
<line x1="819.5" y1="421.5" x2="849.0" y2="421.5" stroke="#5b6472" stroke-width="0.6"/>
<circle cx="819.5" cy="421.5" r="1.6" fill="#5b6472"/>
<text x="852.0" y="424.5" font-size="8.5" fill="#1c2733" text-anchor="start">Messing-Einsatz M3, Bohrung Ø4,6 × 7</text>
<line x1="810.5" y1="436.5" x2="849.0" y2="436.5" stroke="#5b6472" stroke-width="0.6"/>
<circle cx="810.5" cy="436.5" r="1.6" fill="#5b6472"/>
<text x="852.0" y="439.5" font-size="8.5" fill="#1c2733" text-anchor="start">Regal 10 mm</text>
<line x1="797.5" y1="456.5" x2="849.0" y2="456.5" stroke="#5b6472" stroke-width="0.6"/>
<circle cx="797.5" cy="456.5" r="1.6" fill="#5b6472"/>
<text x="852.0" y="459.5" font-size="8.5" fill="#1c2733" text-anchor="start">Rücken: Wand vor dem Spindelkanal</text>
<line x1="825.5" y1="459.0" x2="849.0" y2="469.5" stroke="#5b6472" stroke-width="0.6"/>
<circle cx="825.5" cy="459.0" r="1.6" fill="#5b6472"/>
<text x="852.0" y="472.5" font-size="8.5" fill="#1c2733" text-anchor="start">Lasche, 0,5 mm unter dem Regal</text>
<rect x="18.0" y="678.0" width="14.0" height="9.0" fill="#c9d9ec" stroke="#2f5d92" stroke-width="0.8"/>
<text x="37.0" y="686.0" font-size="8.5" fill="#1c2733" text-anchor="start">gedruckt (PETG), geschnitten</text>
<rect x="214.0" y="678.0" width="14.0" height="9.0" fill="#e8ded0" stroke="#8a6d3b" stroke-width="0.8"/>
<text x="233.0" y="686.0" font-size="8.5" fill="#1c2733" text-anchor="start">Kaufteil</text>
<rect x="410.0" y="678.0" width="14.0" height="9.0" fill="#c3c8cf" stroke="#4a4f57" stroke-width="0.8"/>
<text x="429.0" y="686.0" font-size="8.5" fill="#1c2733" text-anchor="start">Stahl: Welle, Spindel, Schrauben</text>
<rect x="606.0" y="678.0" width="14.0" height="9.0" fill="#e3c46b" stroke="#8a6d1b" stroke-width="0.8"/>
<text x="625.0" y="686.0" font-size="8.5" fill="#1c2733" text-anchor="start">Messing-Einsatz</text>
<rect x="802.0" y="678.0" width="14.0" height="9.0" fill="#eef2f7" stroke="#a9b6c8" stroke-width="0.8"/>
<text x="821.0" y="686.0" font-size="8.5" fill="#1c2733" text-anchor="start">hinter der Schnittebene</text>
<line x1="18.0" y1="701.0" x2="32.0" y2="701.0" stroke="#b4342f" stroke-width="0.9" stroke-dasharray="4 3"/>
<text x="37.0" y="704.0" font-size="8.5" fill="#1c2733" text-anchor="start">Endschalter (Gabellichtschranke): schaltet, wenn die Oberkante der Schlittenplatte diese Linie erreicht — 8 mm vor der oberen Grenze des Verfahrwegs</text>
</svg>
