<svg xmlns="http://www.w3.org/2000/svg" width="741" height="699" viewBox="0 0 741 699" font-family="Inter, Helvetica, Arial, sans-serif">
<rect width="100%" height="100%" fill="#ffffff"/>
<text x="16" y="20" font-size="13" font-weight="600" fill="#1c2733">Toolhead Z-Achse — Laser auf MGN9, NEMA 17 mit M6-Spindel</text>
<text x="16" y="32" font-size="8.5" fill="#5b6472">Ursprung = Mitte des X-Wagen-Lochbildes auf seiner Stirnfläche · Maßstab 2.10 px/mm · erzeugt aus ToolheadZ.py</text>
<text x="16.0" y="42.0" font-size="10" font-weight="600" fill="#2f5d92">Seitenansicht (Blick entlang X)</text>
<line x1="93.0" y1="302.0" x2="107.0" y2="302.0" stroke="#b4342f" stroke-width="0.7"/>
<line x1="100.0" y1="295.0" x2="100.0" y2="309.0" stroke="#b4342f" stroke-width="0.7"/>
<rect x="24.4" y="142.4" width="42.0" height="298.2" fill="#e8ded0" fill-opacity="0.45" stroke="#8a6d3b" stroke-width="0.9"/>
<rect x="66.4" y="286.2" width="21.0" height="31.5" fill="#d7d7dc" fill-opacity="0.95" stroke="#55555e" stroke-width="0.9"/>
<rect x="66.4" y="268.4" width="33.6" height="67.2" fill="#d7d7dc" fill-opacity="0.95" stroke="#55555e" stroke-width="0.9"/>
<rect x="100.0" y="209.6" width="16.8" height="231.0" fill="#c9d9ec" fill-opacity="0.95" stroke="#2f5d92" stroke-width="0.9"/>
<rect x="100.0" y="159.2" width="16.8" height="50.4" fill="#c9d9ec" fill-opacity="0.95" stroke="#2f5d92" stroke-width="0.9"/>
<rect x="116.8" y="228.5" width="10.5" height="199.5" fill="#c9d9ec" fill-opacity="0.95" stroke="#2f5d92" stroke-width="0.9"/>
<rect x="127.3" y="228.5" width="13.6" height="199.5" fill="#d7d7dc" fill-opacity="0.95" stroke="#55555e" stroke-width="0.9"/>
<rect x="100.0" y="142.4" width="117.6" height="16.8" fill="#c9d9ec" fill-opacity="0.95" stroke="#2f5d92" stroke-width="0.9"/>
<rect x="100.0" y="136.1" width="104.3" height="6.3" fill="#c9d9ec" fill-opacity="0.95" stroke="#2f5d92" stroke-width="0.9"/>
<rect x="100.0" y="136.1" width="104.3" height="6.3" fill="#c9d9ec" fill-opacity="0.95" stroke="#2f5d92" stroke-width="0.9"/>
<rect x="115.4" y="58.4" width="88.8" height="84.0" fill="#e8ded0" fill-opacity="0.45" stroke="#8a6d3b" stroke-width="0.9"/>
<rect x="139.9" y="167.6" width="39.9" height="52.5" fill="#e8ded0" fill-opacity="0.45" stroke="#8a6d3b" stroke-width="0.9"/>
<rect x="152.9" y="192.8" width="13.9" height="231.1" fill="#e8ded0" fill-opacity="0.45" stroke="#8a6d3b" stroke-width="0.9"/>
<rect x="127.3" y="228.5" width="21.0" height="83.8" fill="none" stroke="#55555e" stroke-width="0.9" stroke-dasharray="4 3" opacity="0.75"/>
<rect x="148.3" y="234.7" width="25.2" height="204.2" fill="none" stroke="#2f5d92" stroke-width="0.9" stroke-dasharray="4 3" opacity="0.75"/>
<rect x="173.5" y="234.7" width="12.6" height="204.2" fill="none" stroke="#2f5d92" stroke-width="0.9" stroke-dasharray="4 3" opacity="0.75"/>
<rect x="137.8" y="243.1" width="35.7" height="54.6" fill="none" stroke="#2f5d92" stroke-width="0.9" stroke-dasharray="4 3" opacity="0.75"/>
<rect x="186.1" y="209.8" width="73.5" height="209.2" fill="none" stroke="#8a6d3b" stroke-width="0.9" stroke-dasharray="4 3" opacity="0.75"/>
<rect x="127.3" y="344.2" width="21.0" height="83.8" fill="#d7d7dc" fill-opacity="0.95" stroke="#55555e" stroke-width="0.9"/>
<rect x="148.3" y="350.4" width="25.2" height="204.2" fill="#c9d9ec" fill-opacity="0.95" stroke="#2f5d92" stroke-width="0.9"/>
<rect x="173.5" y="350.4" width="12.6" height="204.2" fill="#c9d9ec" fill-opacity="0.95" stroke="#2f5d92" stroke-width="0.9"/>
<rect x="137.8" y="358.8" width="35.7" height="54.6" fill="#c9d9ec" fill-opacity="0.95" stroke="#2f5d92" stroke-width="0.9"/>
<rect x="186.1" y="325.5" width="73.5" height="209.2" fill="#e8ded0" fill-opacity="0.45" stroke="#8a6d3b" stroke-width="0.9"/>
<circle cx="45.4" cy="291.5" r="6.5" fill="#ffffff" stroke="#1c2733" stroke-width="0.8"/><text x="45.4" y="291.5" text-anchor="middle" dominant-baseline="central" font-size="8" font-weight="600" fill="#1c2733">1</text>
<circle cx="76.9" cy="302.0" r="6.5" fill="#ffffff" stroke="#1c2733" stroke-width="0.8"/><text x="76.9" y="302.0" text-anchor="middle" dominant-baseline="central" font-size="8" font-weight="600" fill="#1c2733">2</text>
<circle cx="83.2" cy="316.5" r="6.5" fill="#ffffff" stroke="#1c2733" stroke-width="0.8"/><text x="83.2" y="316.5" text-anchor="middle" dominant-baseline="central" font-size="8" font-weight="600" fill="#1c2733">3</text>
<circle cx="108.4" cy="325.1" r="6.5" fill="#ffffff" stroke="#1c2733" stroke-width="0.8"/><text x="108.4" y="325.1" text-anchor="middle" dominant-baseline="central" font-size="8" font-weight="600" fill="#1c2733">4</text>
<circle cx="108.4" cy="184.4" r="6.5" fill="#ffffff" stroke="#1c2733" stroke-width="0.8"/><text x="108.4" y="184.4" text-anchor="middle" dominant-baseline="central" font-size="8" font-weight="600" fill="#1c2733">5</text>
<circle cx="122.1" cy="342.8" r="6.5" fill="#ffffff" stroke="#1c2733" stroke-width="0.8"/><text x="122.1" y="342.8" text-anchor="middle" dominant-baseline="central" font-size="8" font-weight="600" fill="#1c2733">6</text>
<circle cx="134.1" cy="328.2" r="6.5" fill="#ffffff" stroke="#1c2733" stroke-width="0.8"/><text x="134.1" y="328.2" text-anchor="middle" dominant-baseline="central" font-size="8" font-weight="600" fill="#1c2733">7</text>
<circle cx="158.8" cy="150.8" r="6.5" fill="#ffffff" stroke="#1c2733" stroke-width="0.8"/><text x="158.8" y="150.8" text-anchor="middle" dominant-baseline="central" font-size="8" font-weight="600" fill="#1c2733">8</text>
<circle cx="152.1" cy="168.2" r="6.5" fill="#ffffff" stroke="#1c2733" stroke-width="0.8"/><text x="152.1" y="168.2" text-anchor="middle" dominant-baseline="central" font-size="8" font-weight="600" fill="#1c2733">9</text>
<circle cx="152.1" cy="182.8" r="6.5" fill="#ffffff" stroke="#1c2733" stroke-width="0.8"/><text x="152.1" y="182.8" text-anchor="middle" dominant-baseline="central" font-size="8" font-weight="600" fill="#1c2733">10</text>
<circle cx="159.8" cy="100.4" r="6.5" fill="#ffffff" stroke="#1c2733" stroke-width="0.8"/><text x="159.8" y="100.4" text-anchor="middle" dominant-baseline="central" font-size="8" font-weight="600" fill="#1c2733">11</text>
<circle cx="159.8" cy="208.3" r="6.5" fill="#ffffff" stroke="#1c2733" stroke-width="0.8"/><text x="159.8" y="208.3" text-anchor="middle" dominant-baseline="central" font-size="8" font-weight="600" fill="#1c2733">12</text>
<circle cx="159.8" cy="308.4" r="6.5" fill="#ffffff" stroke="#1c2733" stroke-width="0.8"/><text x="159.8" y="308.4" text-anchor="middle" dominant-baseline="central" font-size="8" font-weight="600" fill="#1c2733">13</text>
<circle cx="137.8" cy="386.1" r="6.5" fill="#ffffff" stroke="#1c2733" stroke-width="0.8"/><text x="137.8" y="386.1" text-anchor="middle" dominant-baseline="central" font-size="8" font-weight="600" fill="#1c2733">14</text>
<circle cx="160.9" cy="452.5" r="6.5" fill="#ffffff" stroke="#1c2733" stroke-width="0.8"/><text x="160.9" y="452.5" text-anchor="middle" dominant-baseline="central" font-size="8" font-weight="600" fill="#1c2733">15</text>
<circle cx="179.8" cy="452.5" r="6.5" fill="#ffffff" stroke="#1c2733" stroke-width="0.8"/><text x="179.8" y="452.5" text-anchor="middle" dominant-baseline="central" font-size="8" font-weight="600" fill="#1c2733">16</text>
<circle cx="155.7" cy="386.1" r="6.5" fill="#ffffff" stroke="#1c2733" stroke-width="0.8"/><text x="155.7" y="386.1" text-anchor="middle" dominant-baseline="central" font-size="8" font-weight="600" fill="#1c2733">17</text>
<circle cx="222.9" cy="430.1" r="6.5" fill="#ffffff" stroke="#1c2733" stroke-width="0.8"/><text x="222.9" y="430.1" text-anchor="middle" dominant-baseline="central" font-size="8" font-weight="600" fill="#1c2733">18</text>
<text x="380.6" y="42.0" font-size="10" font-weight="600" fill="#2f5d92">Vorderansicht (Blick entlang Y)</text>
<line x1="449.2" y1="302.0" x2="463.2" y2="302.0" stroke="#b4342f" stroke-width="0.7"/>
<line x1="456.2" y1="295.0" x2="456.2" y2="309.0" stroke="#b4342f" stroke-width="0.7"/>
<rect x="389.0" y="142.4" width="205.8" height="298.2" fill="#e8ded0" fill-opacity="0.45" stroke="#8a6d3b" stroke-width="0.9"/>
<rect x="389.0" y="286.2" width="205.8" height="31.5" fill="#d7d7dc" fill-opacity="0.95" stroke="#55555e" stroke-width="0.9"/>
<rect x="394.5" y="268.4" width="123.5" height="67.2" fill="#d7d7dc" fill-opacity="0.95" stroke="#55555e" stroke-width="0.9"/>
<rect x="410.0" y="209.6" width="92.4" height="231.0" fill="#c9d9ec" fill-opacity="0.95" stroke="#2f5d92" stroke-width="0.9"/>
<rect x="410.0" y="159.2" width="163.8" height="50.4" fill="#c9d9ec" fill-opacity="0.95" stroke="#2f5d92" stroke-width="0.9"/>
<rect x="446.8" y="228.5" width="18.9" height="199.5" fill="#c9d9ec" fill-opacity="0.95" stroke="#2f5d92" stroke-width="0.9"/>
<rect x="446.8" y="228.5" width="18.9" height="199.5" fill="#d7d7dc" fill-opacity="0.95" stroke="#55555e" stroke-width="0.9"/>
<rect x="465.3" y="142.4" width="107.7" height="16.8" fill="#c9d9ec" fill-opacity="0.95" stroke="#2f5d92" stroke-width="0.9"/>
<rect x="468.1" y="136.1" width="6.3" height="6.3" fill="#c9d9ec" fill-opacity="0.95" stroke="#2f5d92" stroke-width="0.9"/>
<rect x="564.0" y="136.1" width="6.3" height="6.3" fill="#c9d9ec" fill-opacity="0.95" stroke="#2f5d92" stroke-width="0.9"/>
<rect x="474.8" y="58.4" width="88.8" height="84.0" fill="#e8ded0" fill-opacity="0.45" stroke="#8a6d3b" stroke-width="0.9"/>
<rect x="499.2" y="167.6" width="39.9" height="52.5" fill="#e8ded0" fill-opacity="0.45" stroke="#8a6d3b" stroke-width="0.9"/>
<rect x="512.3" y="192.8" width="13.9" height="231.1" fill="#e8ded0" fill-opacity="0.45" stroke="#8a6d3b" stroke-width="0.9"/>
<rect x="435.2" y="228.5" width="42.0" height="83.8" fill="none" stroke="#55555e" stroke-width="0.9" stroke-dasharray="4 3" opacity="0.75"/>
<rect x="424.7" y="234.7" width="63.0" height="204.2" fill="none" stroke="#2f5d92" stroke-width="0.9" stroke-dasharray="4 3" opacity="0.75"/>
<rect x="419.5" y="234.7" width="129.1" height="204.2" fill="none" stroke="#2f5d92" stroke-width="0.9" stroke-dasharray="4 3" opacity="0.75"/>
<rect x="489.8" y="243.1" width="58.8" height="54.6" fill="none" stroke="#2f5d92" stroke-width="0.9" stroke-dasharray="4 3" opacity="0.75"/>
<rect x="419.5" y="209.8" width="73.5" height="209.2" fill="none" stroke="#8a6d3b" stroke-width="0.9" stroke-dasharray="4 3" opacity="0.75"/>
<rect x="435.2" y="344.2" width="42.0" height="83.8" fill="#d7d7dc" fill-opacity="0.95" stroke="#55555e" stroke-width="0.9"/>
<rect x="424.7" y="350.4" width="63.0" height="204.2" fill="#c9d9ec" fill-opacity="0.95" stroke="#2f5d92" stroke-width="0.9"/>
<rect x="419.5" y="350.4" width="129.1" height="204.2" fill="#c9d9ec" fill-opacity="0.95" stroke="#2f5d92" stroke-width="0.9"/>
<rect x="489.8" y="358.8" width="58.8" height="54.6" fill="#c9d9ec" fill-opacity="0.95" stroke="#2f5d92" stroke-width="0.9"/>
<rect x="419.5" y="325.5" width="73.5" height="209.2" fill="#e8ded0" fill-opacity="0.45" stroke="#8a6d3b" stroke-width="0.9"/>
<circle cx="491.9" cy="291.5" r="6.5" fill="#ffffff" stroke="#1c2733" stroke-width="0.8"/><text x="491.9" y="291.5" text-anchor="middle" dominant-baseline="central" font-size="8" font-weight="600" fill="#1c2733">1</text>
<circle cx="491.9" cy="316.5" r="6.5" fill="#ffffff" stroke="#1c2733" stroke-width="0.8"/><text x="491.9" y="316.5" text-anchor="middle" dominant-baseline="central" font-size="8" font-weight="600" fill="#1c2733">2</text>
<circle cx="456.2" cy="302.0" r="6.5" fill="#ffffff" stroke="#1c2733" stroke-width="0.8"/><text x="456.2" y="302.0" text-anchor="middle" dominant-baseline="central" font-size="8" font-weight="600" fill="#1c2733">3</text>
<circle cx="456.2" cy="325.1" r="6.5" fill="#ffffff" stroke="#1c2733" stroke-width="0.8"/><text x="456.2" y="325.1" text-anchor="middle" dominant-baseline="central" font-size="8" font-weight="600" fill="#1c2733">4</text>
<circle cx="491.9" cy="184.4" r="6.5" fill="#ffffff" stroke="#1c2733" stroke-width="0.8"/><text x="491.9" y="184.4" text-anchor="middle" dominant-baseline="central" font-size="8" font-weight="600" fill="#1c2733">5</text>
<circle cx="456.2" cy="342.8" r="6.5" fill="#ffffff" stroke="#1c2733" stroke-width="0.8"/><text x="456.2" y="342.8" text-anchor="middle" dominant-baseline="central" font-size="8" font-weight="600" fill="#1c2733">6</text>
<circle cx="456.2" cy="357.2" r="6.5" fill="#ffffff" stroke="#1c2733" stroke-width="0.8"/><text x="456.2" y="357.2" text-anchor="middle" dominant-baseline="central" font-size="8" font-weight="600" fill="#1c2733">7</text>
<circle cx="519.2" cy="150.8" r="6.5" fill="#ffffff" stroke="#1c2733" stroke-width="0.8"/><text x="519.2" y="150.8" text-anchor="middle" dominant-baseline="central" font-size="8" font-weight="600" fill="#1c2733">8</text>
<circle cx="471.2" cy="139.2" r="6.5" fill="#ffffff" stroke="#1c2733" stroke-width="0.8"/><text x="471.2" y="139.2" text-anchor="middle" dominant-baseline="central" font-size="8" font-weight="600" fill="#1c2733">9</text>
<circle cx="567.2" cy="139.2" r="6.5" fill="#ffffff" stroke="#1c2733" stroke-width="0.8"/><text x="567.2" y="139.2" text-anchor="middle" dominant-baseline="central" font-size="8" font-weight="600" fill="#1c2733">10</text>
<circle cx="519.2" cy="100.4" r="6.5" fill="#ffffff" stroke="#1c2733" stroke-width="0.8"/><text x="519.2" y="100.4" text-anchor="middle" dominant-baseline="central" font-size="8" font-weight="600" fill="#1c2733">11</text>
<circle cx="519.2" cy="193.8" r="6.5" fill="#ffffff" stroke="#1c2733" stroke-width="0.8"/><text x="519.2" y="193.8" text-anchor="middle" dominant-baseline="central" font-size="8" font-weight="600" fill="#1c2733">12</text>
<circle cx="519.2" cy="308.4" r="6.5" fill="#ffffff" stroke="#1c2733" stroke-width="0.8"/><text x="519.2" y="308.4" text-anchor="middle" dominant-baseline="central" font-size="8" font-weight="600" fill="#1c2733">13</text>
<circle cx="456.2" cy="386.1" r="6.5" fill="#ffffff" stroke="#1c2733" stroke-width="0.8"/><text x="456.2" y="386.1" text-anchor="middle" dominant-baseline="central" font-size="8" font-weight="600" fill="#1c2733">14</text>
<circle cx="456.2" cy="452.5" r="6.5" fill="#ffffff" stroke="#1c2733" stroke-width="0.8"/><text x="456.2" y="452.5" text-anchor="middle" dominant-baseline="central" font-size="8" font-weight="600" fill="#1c2733">15</text>
<circle cx="484.0" cy="452.5" r="6.5" fill="#ffffff" stroke="#1c2733" stroke-width="0.8"/><text x="484.0" y="452.5" text-anchor="middle" dominant-baseline="central" font-size="8" font-weight="600" fill="#1c2733">16</text>
<circle cx="519.2" cy="386.1" r="6.5" fill="#ffffff" stroke="#1c2733" stroke-width="0.8"/><text x="519.2" y="386.1" text-anchor="middle" dominant-baseline="central" font-size="8" font-weight="600" fill="#1c2733">17</text>
<circle cx="456.2" cy="430.1" r="6.5" fill="#ffffff" stroke="#1c2733" stroke-width="0.8"/><text x="456.2" y="430.1" text-anchor="middle" dominant-baseline="central" font-size="8" font-weight="600" fill="#1c2733">18</text>
<line x1="100.0" y1="50.0" x2="100.0" y2="565.0" stroke="#7a8a9e" stroke-width="0.5" stroke-dasharray="2 4"/>
<text x="103.0" y="569.0" font-size="7.5" fill="#5b6472" transform="rotate(-90 103.0 569.0)" text-anchor="start">X-Wagen-Stirnfläche  Y=0</text>
<line x1="116.8" y1="50.0" x2="116.8" y2="565.0" stroke="#7a8a9e" stroke-width="0.5" stroke-dasharray="2 4"/>
<text x="119.8" y="569.0" font-size="7.5" fill="#5b6472" transform="rotate(-90 119.8 569.0)" text-anchor="start">Trägerplatte vorn  Y=+8</text>
<line x1="127.3" y1="50.0" x2="127.3" y2="565.0" stroke="#7a8a9e" stroke-width="0.5" stroke-dasharray="2 4"/>
<text x="130.3" y="569.0" font-size="7.5" fill="#5b6472" transform="rotate(-90 130.3 569.0)" text-anchor="start">Z-Schiene auf  Y=+13</text>
<line x1="148.3" y1="50.0" x2="148.3" y2="565.0" stroke="#7a8a9e" stroke-width="0.5" stroke-dasharray="2 4"/>
<text x="151.3" y="569.0" font-size="7.5" fill="#5b6472" transform="rotate(-90 151.3 569.0)" text-anchor="start">Z-Wagen  Y=+23</text>
<line x1="186.1" y1="50.0" x2="186.1" y2="565.0" stroke="#7a8a9e" stroke-width="0.5" stroke-dasharray="2 4"/>
<text x="189.1" y="569.0" font-size="7.5" fill="#5b6472" transform="rotate(-90 189.1 569.0)" text-anchor="start">Laser  Y=+41</text>
<line x1="222.9" y1="50.0" x2="222.9" y2="565.0" stroke="#7a8a9e" stroke-width="0.5" stroke-dasharray="2 4"/>
<text x="225.9" y="569.0" font-size="7.5" fill="#5b6472" transform="rotate(-90 225.9 569.0)" text-anchor="start">Strahlachse  Y=+58.5</text>
<line x1="641.0" y1="386.1" x2="641.0" y2="270.4" stroke="#b4342f" stroke-width="0.8"/><line x1="638.0" y1="386.1" x2="644.0" y2="386.1" stroke="#b4342f" stroke-width="0.8"/><line x1="638.0" y1="270.4" x2="644.0" y2="270.4" stroke="#b4342f" stroke-width="0.8"/><text x="646.0" y="328.2" font-size="8.5" fill="#b4342f" text-anchor="start" dominant-baseline="middle">Z-Weg 55.1</text>
<line x1="380.6" y1="159.2" x2="615.8" y2="159.2" stroke="#8c96a3" stroke-width="0.6" stroke-dasharray="2 3"/><text x="618.8" y="159.2" font-size="7.5" fill="#5b6472" dominant-baseline="middle">Konsole +68</text>
<line x1="380.6" y1="220.1" x2="615.8" y2="220.1" stroke="#8c96a3" stroke-width="0.6" stroke-dasharray="2 3"/><text x="618.8" y="220.1" font-size="7.5" fill="#5b6472" dominant-baseline="middle">Kupplung +39</text>
<line x1="380.6" y1="534.7" x2="615.8" y2="534.7" stroke="#8c96a3" stroke-width="0.6" stroke-dasharray="2 3"/><text x="618.8" y="534.7" font-size="7.5" fill="#5b6472" dominant-baseline="middle">Linse tief -111</text>
<text x="16" y="587.0" font-size="9" font-weight="600" fill="#1c2733">Legende</text>
<rect x="16" y="597.0" width="16" height="10" fill="#c9d9ec" stroke="#2f5d92" stroke-width="0.9"/>
<text x="37" y="602.5" font-size="8.5" fill="#1c2733" dominant-baseline="middle">gedrucktes Teil (PETG)</text>
<rect x="226" y="597.0" width="16" height="10" fill="#d7d7dc" stroke="#55555e" stroke-width="0.9"/>
<text x="247" y="602.5" font-size="8.5" fill="#1c2733" dominant-baseline="middle">Linearführung (Schiene / Wagen)</text>
<rect x="436" y="597.0" width="16" height="10" fill="#e8ded0" stroke="#8a6d3b" stroke-width="0.9"/>
<text x="457" y="602.5" font-size="8.5" fill="#1c2733" dominant-baseline="middle">Kaufteil</text>
<line x1="16" y1="619.0" x2="32" y2="619.0" stroke="#2f5d92" stroke-width="0.9" stroke-dasharray="4 3"/>
<text x="37" y="619.0" font-size="8.5" fill="#1c2733" dominant-baseline="middle">bewegte Gruppe oben (zc=+15.1); ausgefüllt = tiefste Stellung (zc=-40.0)</text>
<text x="16" y="639.0" font-size="8" fill="#1c2733">1&#160;&#160;Portalprofil 2020</text>
<text x="16" y="650.0" font-size="8" fill="#1c2733">2&#160;&#160;X-Schiene MGN15</text>
<text x="16" y="661.0" font-size="8" fill="#1c2733">3&#160;&#160;X-Wagen MGN15H</text>
<text x="16" y="672.0" font-size="8" fill="#1c2733">4&#160;&#160;Trägerplatte Hauptsäule</text>
<text x="16" y="683.0" font-size="8" fill="#1c2733">5&#160;&#160;Trägerplatte Kopf</text>
<text x="16" y="694.0" font-size="8" fill="#1c2733">6&#160;&#160;Schienensockel</text>
<text x="226" y="639.0" font-size="8" fill="#1c2733">7&#160;&#160;Z-Schiene MGN9</text>
<text x="226" y="650.0" font-size="8" fill="#1c2733">8&#160;&#160;Motorkonsole</text>
<text x="226" y="661.0" font-size="8" fill="#1c2733">9&#160;&#160;Fuehrungsrippe links</text>
<text x="226" y="672.0" font-size="8" fill="#1c2733">10&#160;&#160;Fuehrungsrippe rechts</text>
<text x="226" y="683.0" font-size="8" fill="#1c2733">11&#160;&#160;NEMA 17</text>
<text x="226" y="694.0" font-size="8" fill="#1c2733">12&#160;&#160;Kupplung</text>
<text x="436" y="639.0" font-size="8" fill="#1c2733">13&#160;&#160;M6-Gewindestange</text>
<text x="436" y="650.0" font-size="8" fill="#1c2733">14&#160;&#160;Z-Wagen MGN9H</text>
<text x="436" y="661.0" font-size="8" fill="#1c2733">15&#160;&#160;Schlitten Pad/Rippen</text>
<text x="436" y="672.0" font-size="8" fill="#1c2733">16&#160;&#160;Schlittenplatte</text>
<text x="436" y="683.0" font-size="8" fill="#1c2733">17&#160;&#160;Mutternblock</text>
<text x="436" y="694.0" font-size="8" fill="#1c2733">18&#160;&#160;Diodenlaser</text>
</svg>